<?xml version="1.0" encoding="utf-8"?>
<!-- Generator: Adobe Illustrator 24.0.1, SVG Export Plug-In . SVG Version: 6.00 Build 0)  -->
<svg version="1.1" id="Layer_1" xmlns="http://www.w3.org/2000/svg" xmlns:xlink="http://www.w3.org/1999/xlink" x="0px" y="0px"
	 viewBox="0 0 327 81" style="enable-background:new 0 0 327 81;" xml:space="preserve">
<style type="text/css">
	.st0{fill:#FFFFFF;}
	.st1{fill:url(#_Compound_Path__1_);}
	.st2{clip-path:url(#SVGID_3_);}
	.st3{fill:url(#ellipse3466_1_);}
	.st4{clip-path:url(#SVGID_4_);}
	.st5{fill:url(#ellipse3473_1_);}
	.st6{clip-path:url(#SVGID_5_);}
	.st7{fill:url(#circle3480_1_);}
</style>
<g>
	<path d="M326.5,70.5c0,5.5-4.5,10-10,10H9.5c-5.5,0-10-4.5-10-10v-61c0-5.5,4.5-10,10-10h307c5.5,0,10,4.5,10,10V70.5z"/>
</g>
<g>
	<path class="st0" d="M180.8,44.7l1.9-10.1h2.9l-3.2,14.2h-2.9l-2.3-9.5l-2.3,9.5H172l-3.2-14.2h2.9l1.9,10.1l2.3-10.1h2.5
		L180.8,44.7z"/>
	<path class="st0" d="M194.9,45.9h-5.1l-1,2.9h-3.1l5.3-14.2h2.7l5.3,14.2h-3.1L194.9,45.9z M190.5,43.5h3.6l-1.8-5.3L190.5,43.5z"
		/>
	<path class="st0" d="M209.8,37h-4.4v11.8h-2.9V37h-4.3v-2.4h11.6V37z"/>
	<path class="st0" d="M222.4,44.1c-0.1,1.5-0.7,2.7-1.7,3.6s-2.4,1.3-4,1.3c-1.8,0-3.3-0.6-4.3-1.8s-1.6-2.9-1.6-5.1v-0.9
		c0-1.4,0.2-2.6,0.7-3.6s1.2-1.8,2.1-2.4s1.9-0.8,3.1-0.8c1.6,0,3,0.4,4,1.3s1.6,2.1,1.7,3.7h-2.9c-0.1-0.9-0.3-1.6-0.8-2
		s-1.1-0.6-2-0.6c-1,0-1.7,0.4-2.2,1s-0.7,1.8-0.7,3.3v1.1c0,1.5,0.2,2.7,0.7,3.4s1.2,1.1,2.2,1.1c0.9,0,1.6-0.2,2-0.6
		s0.7-1.1,0.8-1.9H222.4z"/>
	<path class="st0" d="M235.9,48.8H233v-6.1h-5.7v6.1h-2.9V34.6h2.9v5.8h5.7v-5.8h2.9V48.8z"/>
	<path class="st0" d="M255,48.8h-2.9l-5.7-9.4v9.4h-2.9V34.6h2.9l5.7,9.4v-9.4h2.9V48.8z"/>
	<path class="st0" d="M269.2,42.1c0,1.4-0.2,2.6-0.7,3.7s-1.2,1.9-2.1,2.4s-2,0.9-3.2,0.9c-1.2,0-2.2-0.3-3.2-0.8s-1.6-1.4-2.1-2.4
		s-0.8-2.3-0.8-3.6v-0.7c0-1.4,0.3-2.6,0.8-3.7s1.2-1.9,2.1-2.5s2-0.9,3.2-0.9s2.2,0.3,3.2,0.9s1.6,1.4,2.1,2.5s0.8,2.3,0.8,3.7
		V42.1z M266.3,41.4c0-1.5-0.3-2.6-0.8-3.4s-1.3-1.2-2.3-1.2c-1,0-1.7,0.4-2.3,1.1s-0.8,1.9-0.8,3.4v0.7c0,1.5,0.3,2.6,0.8,3.4
		s1.3,1.2,2.3,1.2c1,0,1.7-0.4,2.3-1.2s0.8-1.9,0.8-3.4V41.4z"/>
	<path class="st0" d="M282.4,44.7l1.9-10.1h2.9l-3.2,14.2h-2.9l-2.3-9.5l-2.3,9.5h-2.9l-3.2-14.2h2.9l1.9,10.1l2.3-10.1h2.5
		L282.4,44.7z"/>
</g>
<g>
	<path id="path3441" class="st0" d="M62.5,49.2h-4.4v-6.3h-2.8v6.3h-4.6V33h4.5v6h2.9v-6h4.4V49.2z M82.7,49.3
		c4.6,0,8.2-3.8,8.2-8.3s-3.7-8.2-8.2-8.2c-3.2,0-6.1,1.8-7.4,4.7c-0.2-2.3-2-4.2-4.3-4.4h-7.5v16.2h7c2.6,0,4.7-2,4.9-4.6
		C76.6,47.5,79.5,49.3,82.7,49.3z M69.8,42.7c0.8,0.1,1.3,0.8,1.2,1.6c-0.1,0.6-0.6,1.1-1.2,1.2h-2.2v-2.8H69.8z M69.8,36.6
		c0.7,0.1,1.3,0.8,1.2,1.6c-0.1,0.6-0.6,1.1-1.2,1.2h-2.2v-2.7h2.2V36.6z M72.8,41c0.6-0.2,1.2-0.5,1.7-1c-0.1,0.7-0.1,1.5,0,2.2
		C74.1,41.6,73.5,41.2,72.8,41L72.8,41z M78.6,41c0-2.3,1.9-4.1,4.1-4.1c2.3,0,4.1,1.9,4.1,4.1c0,2.3-1.8,4.1-4.1,4.1
		C80.5,45.1,78.6,43.2,78.6,41L78.6,41z M82.7,44.2c1.8,0,3.2-1.5,3.2-3.2s-1.5-3.2-3.2-3.2c-1.8,0-3.2,1.5-3.2,3.2
		S80.9,44.2,82.7,44.2L82.7,44.2z"/>
	
		<linearGradient id="_Compound_Path__1_" gradientUnits="userSpaceOnUse" x1="92.5114" y1="-4564.271" x2="146.3101" y2="-4564.271" gradientTransform="matrix(1 0 0 -1 0 -4523.2002)">
		<stop  offset="0" style="stop-color:#991EEB"/>
		<stop  offset="0.4" style="stop-color:#5822B4"/>
		<stop  offset="0.73" style="stop-color:#5822B4"/>
		<stop  offset="1" style="stop-color:#991EEB"/>
	</linearGradient>
	<path id="_Compound_Path_" class="st1" d="M114.4,38.7c-0.1-3.9-2.9-6-6.3-6c-1.8-0.1-3.5,0.6-4.7,1.8c-1.2-1.2-2.9-1.9-4.7-1.8
		c-3.4,0-6.2,2.1-6.3,6v9c0,0.8,0.7,1.5,1.5,1.5l0,0h1.4c0.1,0,0.3-0.1,0.3-0.3V38.8l0,0c0-1.7,1.4-3.1,3.1-3.1s3.1,1.4,3.1,3.1l0,0
		l0,0v9c0,0.8,0.7,1.5,1.5,1.5h1.4c0.1,0,0.3-0.1,0.3-0.3V38.8l0,0c0-1.7,1.4-3.1,3.1-3.1c1.7,0,3.1,1.4,3.1,3.1l0,0v9
		c0,0.8,0.7,1.5,1.5,1.5l0,0h1.4c0.1,0,0.3-0.1,0.3-0.3V38.7L114.4,38.7L114.4,38.7z M146.1,33h-2.4c-0.7,0-1.3,0.3-1.7,0.9
		l-2.6,3.9c-0.3,0.4-0.8,0.5-1.2,0.2c-0.1-0.1-0.2-0.1-0.2-0.2l-2.6-3.9c-0.4-0.5-1-0.9-1.7-0.9h-2.4c-0.1,0-0.2,0.1-0.2,0.2v0.1
		l4.7,7c0.3,0.5,0.3,1.2,0,1.7l-4.7,7c-0.1,0.1,0,0.2,0.1,0.3h0.1h2.4c0.7,0,1.3-0.3,1.7-0.9l2.6-3.9c0.3-0.4,0.8-0.5,1.2-0.2
		c0.1,0.1,0.2,0.1,0.2,0.2l2.6,3.9c0.4,0.5,1,0.9,1.7,0.9h2.4c0.1,0,0.2-0.1,0.2-0.2V49l-4.7-7c-0.3-0.5-0.3-1.2,0-1.7l4.7-7
		C146.3,33.2,146.3,33.1,146.1,33C146.2,33,146.1,33,146.1,33L146.1,33z M130.1,33h-1.4c-0.7,0-1.3,0.5-1.5,1.2
		c-1.3-1-2.9-1.5-4.5-1.4c-4.1,0-7.5,2.9-7.5,8.3s3.3,8.3,7.5,8.3c1.6,0,3.2-0.5,4.5-1.4c0.1,0.8,0.7,1.4,1.5,1.4h1.4
		c0.1,0,0.3-0.1,0.3-0.3V33.2C130.3,33.1,130.2,33,130.1,33L130.1,33L130.1,33z M122.7,46.2c-2.5,0-4.5-1.8-4.5-5.2s2-5.2,4.5-5.2
		s4.5,1.8,4.5,5.2S125.1,46.2,122.7,46.2z"/>
	<g id="g3453">
		<g>
			<g>
				<defs>
					<path id="SVGID_7_" d="M114.4,38.7c-0.1-3.9-2.9-6-6.3-6c-1.8-0.1-3.5,0.6-4.7,1.8c-1.2-1.2-2.9-1.9-4.7-1.8
						c-3.4,0-6.2,2.1-6.3,6v9c0,0.8,0.7,1.5,1.5,1.5l0,0h1.4c0.1,0,0.3-0.1,0.3-0.3V38.8l0,0c0-1.7,1.4-3.1,3.1-3.1s3.1,1.4,3.1,3.1
						l0,0l0,0v9c0,0.8,0.7,1.5,1.5,1.5h1.4c0.1,0,0.3-0.1,0.3-0.3V38.8l0,0c0-1.7,1.4-3.1,3.1-3.1c1.7,0,3.1,1.4,3.1,3.1l0,0v9
						c0,0.8,0.7,1.5,1.5,1.5l0,0h1.4c0.1,0,0.3-0.1,0.3-0.3V38.7L114.4,38.7L114.4,38.7z M146.1,33h-2.4c-0.7,0-1.3,0.3-1.7,0.9
						l-2.6,3.9c-0.3,0.4-0.8,0.5-1.2,0.2c-0.1-0.1-0.2-0.1-0.2-0.2l-2.6-3.9c-0.4-0.5-1-0.9-1.7-0.9h-2.4c-0.1,0-0.2,0.1-0.2,0.2
						v0.1l4.7,7c0.3,0.5,0.3,1.2,0,1.7l-4.7,7c-0.1,0.1,0,0.2,0.1,0.3h0.1h2.4c0.7,0,1.3-0.3,1.7-0.9l2.6-3.9
						c0.3-0.4,0.8-0.5,1.2-0.2c0.1,0.1,0.2,0.1,0.2,0.2l2.6,3.9c0.4,0.5,1,0.9,1.7,0.9h2.4c0.1,0,0.2-0.1,0.2-0.2V49l-4.7-7
						c-0.3-0.5-0.3-1.2,0-1.7l4.7-7C146.3,33.2,146.3,33.1,146.1,33L146.1,33z M130.1,33h-1.4c-0.7,0-1.3,0.5-1.5,1.2
						c-1.3-1-2.9-1.5-4.5-1.4c-4.1,0-7.5,2.9-7.5,8.3s3.3,8.3,7.5,8.3c1.6,0,3.2-0.5,4.5-1.4c0.1,0.8,0.7,1.4,1.5,1.4h1.4
						c0.1,0,0.3-0.1,0.3-0.3V33.2C130.3,33.1,130.2,33,130.1,33L130.1,33L130.1,33z M122.7,46.2c-2.5,0-4.5-1.8-4.5-5.2
						s2-5.2,4.5-5.2s4.5,1.8,4.5,5.2S125.1,46.2,122.7,46.2z"/>
				</defs>
				<clipPath id="SVGID_3_">
					<use xlink:href="#SVGID_7_"  style="overflow:visible;"/>
				</clipPath>
				<g class="st2">
					
						<radialGradient id="ellipse3466_1_" cx="-2581.7312" cy="-4833.2754" r="14.3" gradientTransform="matrix(0.67 0 0 -0.87 1840.5599 -4189.4697)" gradientUnits="userSpaceOnUse">
						<stop  offset="0" style="stop-color:#7BA7F2;stop-opacity:0.5"/>
						<stop  offset="1" style="stop-color:#7BA7F2;stop-opacity:0"/>
					</radialGradient>
					<ellipse id="ellipse3466" class="st3" cx="105.4" cy="38" rx="9.6" ry="12.5"/>
				</g>
			</g>
		</g>
		<g>
			<g>
				<defs>
					<path id="SVGID_2_" d="M114.4,38.7c-0.1-3.9-2.9-6-6.3-6c-1.8-0.1-3.5,0.6-4.7,1.8c-1.2-1.2-2.9-1.9-4.7-1.8
						c-3.4,0-6.2,2.1-6.3,6v9c0,0.8,0.7,1.5,1.5,1.5l0,0h1.4c0.1,0,0.3-0.1,0.3-0.3V38.8l0,0c0-1.7,1.4-3.1,3.1-3.1s3.1,1.4,3.1,3.1
						l0,0l0,0v9c0,0.8,0.7,1.5,1.5,1.5h1.4c0.1,0,0.3-0.1,0.3-0.3V38.8l0,0c0-1.7,1.4-3.1,3.1-3.1c1.7,0,3.1,1.4,3.1,3.1l0,0v9
						c0,0.8,0.7,1.5,1.5,1.5l0,0h1.4c0.1,0,0.3-0.1,0.3-0.3V38.7L114.4,38.7L114.4,38.7z M146.1,33h-2.4c-0.7,0-1.3,0.3-1.7,0.9
						l-2.6,3.9c-0.3,0.4-0.8,0.5-1.2,0.2c-0.1-0.1-0.2-0.1-0.2-0.2l-2.6-3.9c-0.4-0.5-1-0.9-1.7-0.9h-2.4c-0.1,0-0.2,0.1-0.2,0.2
						v0.1l4.7,7c0.3,0.5,0.3,1.2,0,1.7l-4.7,7c-0.1,0.1,0,0.2,0.1,0.3h0.1h2.4c0.7,0,1.3-0.3,1.7-0.9l2.6-3.9
						c0.3-0.4,0.8-0.5,1.2-0.2c0.1,0.1,0.2,0.1,0.2,0.2l2.6,3.9c0.4,0.5,1,0.9,1.7,0.9h2.4c0.1,0,0.2-0.1,0.2-0.2V49l-4.7-7
						c-0.3-0.5-0.3-1.2,0-1.7l4.7-7C146.3,33.2,146.3,33.1,146.1,33L146.1,33z M130.1,33h-1.4c-0.7,0-1.3,0.5-1.5,1.2
						c-1.3-1-2.9-1.5-4.5-1.4c-4.1,0-7.5,2.9-7.5,8.3s3.3,8.3,7.5,8.3c1.6,0,3.2-0.5,4.5-1.4c0.1,0.8,0.7,1.4,1.5,1.4h1.4
						c0.1,0,0.3-0.1,0.3-0.3V33.2C130.3,33.1,130.2,33,130.1,33L130.1,33L130.1,33z M122.7,46.2c-2.5,0-4.5-1.8-4.5-5.2
						s2-5.2,4.5-5.2s4.5,1.8,4.5,5.2S125.1,46.2,122.7,46.2z"/>
				</defs>
				<clipPath id="SVGID_4_">
					<use xlink:href="#SVGID_2_"  style="overflow:visible;"/>
				</clipPath>
				<g class="st4">
					
						<radialGradient id="ellipse3473_1_" cx="115.0414" cy="-5334.8286" r="19.7574" gradientTransform="matrix(1 0 0 -0.71 0 -3729.4998)" gradientUnits="userSpaceOnUse">
						<stop  offset="0.2" style="stop-color:#7BA7F2"/>
						<stop  offset="1" style="stop-color:#7BA7F2;stop-opacity:0"/>
					</radialGradient>
					<ellipse id="ellipse3473" class="st5" cx="115" cy="48.4" rx="19.8" ry="14"/>
				</g>
			</g>
		</g>
		<g>
			<g>
				<defs>
					<path id="SVGID_1_" d="M114.4,38.7c-0.1-3.9-2.9-6-6.3-6c-1.8-0.1-3.5,0.6-4.7,1.8c-1.2-1.2-2.9-1.9-4.7-1.8
						c-3.4,0-6.2,2.1-6.3,6v9c0,0.8,0.7,1.5,1.5,1.5l0,0h1.4c0.1,0,0.3-0.1,0.3-0.3V38.8l0,0c0-1.7,1.4-3.1,3.1-3.1s3.1,1.4,3.1,3.1
						l0,0l0,0v9c0,0.8,0.7,1.5,1.5,1.5h1.4c0.1,0,0.3-0.1,0.3-0.3V38.8l0,0c0-1.7,1.4-3.1,3.1-3.1c1.7,0,3.1,1.4,3.1,3.1l0,0v9
						c0,0.8,0.7,1.5,1.5,1.5l0,0h1.4c0.1,0,0.3-0.1,0.3-0.3V38.7L114.4,38.7L114.4,38.7z M146.1,33h-2.4c-0.7,0-1.3,0.3-1.7,0.9
						l-2.6,3.9c-0.3,0.4-0.8,0.5-1.2,0.2c-0.1-0.1-0.2-0.1-0.2-0.2l-2.6-3.9c-0.4-0.5-1-0.9-1.7-0.9h-2.4c-0.1,0-0.2,0.1-0.2,0.2
						v0.1l4.7,7c0.3,0.5,0.3,1.2,0,1.7l-4.7,7c-0.1,0.1,0,0.2,0.1,0.3h0.1h2.4c0.7,0,1.3-0.3,1.7-0.9l2.6-3.9
						c0.3-0.4,0.8-0.5,1.2-0.2c0.1,0.1,0.2,0.1,0.2,0.2l2.6,3.9c0.4,0.5,1,0.9,1.7,0.9h2.4c0.1,0,0.2-0.1,0.2-0.2V49l-4.7-7
						c-0.3-0.5-0.3-1.2,0-1.7l4.7-7C146.3,33.2,146.3,33.1,146.1,33L146.1,33z M130.1,33h-1.4c-0.7,0-1.3,0.5-1.5,1.2
						c-1.3-1-2.9-1.5-4.5-1.4c-4.1,0-7.5,2.9-7.5,8.3s3.3,8.3,7.5,8.3c1.6,0,3.2-0.5,4.5-1.4c0.1,0.8,0.7,1.4,1.5,1.4h1.4
						c0.1,0,0.3-0.1,0.3-0.3V33.2C130.3,33.1,130.2,33,130.1,33L130.1,33L130.1,33z M122.7,46.2c-2.5,0-4.5-1.8-4.5-5.2
						s2-5.2,4.5-5.2s4.5,1.8,4.5,5.2S125.1,46.2,122.7,46.2z"/>
				</defs>
				<clipPath id="SVGID_5_">
					<use xlink:href="#SVGID_1_"  style="overflow:visible;"/>
				</clipPath>
				<g class="st6">
					
						<radialGradient id="circle3480_1_" cx="127.1714" cy="-4556.8955" r="10.75" gradientTransform="matrix(1 0 0 -1 0 -4523.2002)" gradientUnits="userSpaceOnUse">
						<stop  offset="0" style="stop-color:#7BA7F2"/>
						<stop  offset="1" style="stop-color:#7BA7F2;stop-opacity:0"/>
					</radialGradient>
					<circle id="circle3480" class="st7" cx="127.1" cy="33.7" r="10.8"/>
				</g>
			</g>
		</g>
	</g>
</g>
</svg>
