<?xml version="1.0" encoding="utf-8"?>
<!-- Generator: Adobe Illustrator 24.0.1, SVG Export Plug-In . SVG Version: 6.00 Build 0)  -->
<svg version="1.1" id="Layer_1" xmlns="http://www.w3.org/2000/svg" xmlns:xlink="http://www.w3.org/1999/xlink" x="0px" y="0px"
	 viewBox="0 0 327 81" style="enable-background:new 0 0 327 81;" xml:space="preserve">
<style type="text/css">
	.st0{fill:url(#SVGID_1_);}
	.st1{fill:#FFFFFF;}
	.st2{clip-path:url(#SVGID_2_);}
	.st3{clip-path:url(#SVGID_3_);}
	.st4{opacity:0;}
	.st5{clip-path:url(#SVGID_4_);}
	.st6{clip-path:url(#SVGID_5_);}
</style>
<g>
	<linearGradient id="SVGID_1_" gradientUnits="userSpaceOnUse" x1="163" y1="2.7006" x2="163" y2="78.0541">
		<stop  offset="0" style="stop-color:#0C0C32"/>
		<stop  offset="1" style="stop-color:#2C3A88"/>
	</linearGradient>
	<path class="st0" d="M326.5,70.5c0,5.5-4.5,10-10,10H9.5c-5.5,0-10-4.5-10-10v-61c0-5.5,4.5-10,10-10h307c5.5,0,10,4.5,10,10V70.5z
		"/>
</g>
<g>
	<path class="st1" d="M180.8,44.7l1.9-10.1h2.9l-3.2,14.2h-2.9l-2.3-9.5l-2.3,9.5H172l-3.2-14.2h2.9l1.9,10.1l2.3-10.1h2.5
		L180.8,44.7z"/>
	<path class="st1" d="M194.9,45.9h-5.1l-1,2.9h-3.1l5.3-14.2h2.7l5.3,14.2h-3.1L194.9,45.9z M190.5,43.5h3.6l-1.8-5.3L190.5,43.5z"
		/>
	<path class="st1" d="M209.8,37h-4.4v11.8h-2.9V37h-4.3v-2.4h11.6V37z"/>
	<path class="st1" d="M222.4,44.1c-0.1,1.5-0.7,2.7-1.7,3.6s-2.4,1.3-4,1.3c-1.8,0-3.3-0.6-4.3-1.8s-1.6-2.9-1.6-5.1v-0.9
		c0-1.4,0.2-2.6,0.7-3.6s1.2-1.8,2.1-2.4s1.9-0.8,3.1-0.8c1.6,0,3,0.4,4,1.3s1.6,2.1,1.7,3.7h-2.9c-0.1-0.9-0.3-1.6-0.8-2
		s-1.1-0.6-2-0.6c-1,0-1.7,0.4-2.2,1s-0.7,1.8-0.7,3.3v1.1c0,1.5,0.2,2.7,0.7,3.4s1.2,1.1,2.2,1.1c0.9,0,1.6-0.2,2-0.6
		s0.7-1.1,0.8-1.9H222.4z"/>
	<path class="st1" d="M235.9,48.8H233v-6.1h-5.7v6.1h-2.9V34.6h2.9v5.8h5.7v-5.8h2.9V48.8z"/>
	<path class="st1" d="M255,48.8h-2.9l-5.7-9.4v9.4h-2.9V34.6h2.9l5.7,9.4v-9.4h2.9V48.8z"/>
	<path class="st1" d="M269.2,42.1c0,1.4-0.2,2.6-0.7,3.7s-1.2,1.9-2.1,2.4s-2,0.9-3.2,0.9c-1.2,0-2.2-0.3-3.2-0.8s-1.6-1.4-2.1-2.4
		s-0.8-2.3-0.8-3.6v-0.7c0-1.4,0.3-2.6,0.8-3.7s1.2-1.9,2.1-2.5s2-0.9,3.2-0.9s2.2,0.3,3.2,0.9s1.6,1.4,2.1,2.5s0.8,2.3,0.8,3.7
		V42.1z M266.3,41.4c0-1.5-0.3-2.6-0.8-3.4s-1.3-1.2-2.3-1.2c-1,0-1.7,0.4-2.3,1.1s-0.8,1.9-0.8,3.4v0.7c0,1.5,0.3,2.6,0.8,3.4
		s1.3,1.2,2.3,1.2c1,0,1.7-0.4,2.3-1.2s0.8-1.9,0.8-3.4V41.4z"/>
	<path class="st1" d="M282.4,44.7l1.9-10.1h2.9l-3.2,14.2h-2.9l-2.3-9.5l-2.3,9.5h-2.9l-3.2-14.2h2.9l1.9,10.1l2.3-10.1h2.5
		L282.4,44.7z"/>
</g>
<g id="g42">
	<g>
		<defs>
			<path id="SVGID_9_" d="M122.5,42h-4.2c-0.1-1.4-0.3-2.8-0.5-4.2c0-0.1-0.2-0.2-0.3-0.3h-1c-0.1,0-0.2,0-0.2,0.1
				c-0.1,0.1-0.1,0.2-0.1,0.2c0.3,1.4,0.5,2.7,0.5,4.1h-4c-0.2,0-0.3,0.2-0.3,0.3v0.9c0,0.2,0.2,0.3,0.3,0.3h4.1v0.6
				c0,1.1-0.1,2.3-0.2,3.4c0,0.1,0,0.2,0.1,0.2c0.1,0.1,0.1,0.1,0.2,0.1h0.9c0.2,0,0.3-0.1,0.3-0.3c0.1-1.1,0.2-2.3,0.2-3.5
				c0-0.2,0-0.4,0-0.6h4.1c0.2,0,0.3-0.1,0.3-0.3v-0.9C122.9,42.1,122.7,42,122.5,42 M109.4,42.1c0,0-0.1-0.7-0.8,0.1
				c-1,1-1.8,2.2-2.5,3.5c0.7-0.1,1.4-0.4,2-0.8C108.9,44.2,109.4,43.2,109.4,42.1 M109.8,44.9c-0.6,1-2.3,3.3-4.6,2.7
				c-0.9,2-1.4,4.2-1.7,6.4c0,0-0.1,0.5-0.5,0.3c-0.7-0.4-1.2-1.1-1.3-1.9c-0.2-1.3,0.4-3.6,1.7-6.1c-0.4-0.8-0.6-1.7-0.4-2.5
				c0.4-1.6,1.2-3,2.5-4.1c0,0,0.3-0.2,0.4-0.1s0.1,0.8,0,1.1s-1.1,2-1.1,2c-0.3,0.6-0.5,1.3-0.4,2c1.2-1.7,3.8-5.3,5.4-4.2
				c0.6,0.5,0.9,1.3,0.8,2.1c0,0.8-0.2,1.6-0.6,2.3 M95.4,46.2c-0.2,0.7-0.9,1.1-1.6,0.9c0,0-0.1,0-0.1,0c-0.8-0.4-2.1-3-2.1-3
				s-0.5-1-0.6-1c-0.1,0-0.1-0.2-0.2,0.9s0,3.1-0.4,3.5c-0.3,0.3-0.8,0.3-1.1-0.1c0,0-0.1-0.1-0.1-0.1c-0.3-0.9-0.4-1.9-0.2-2.8
				c0-1.3,0.4-2.6,1-3.8c0.2-0.3,0.6-0.3,0.8-0.2c0.1,0,0.1,0.1,0.2,0.2c0.7,0.7,1.2,1.4,1.7,2.2l0.2,0.3c0.3,0.5,0.6,1.1,1,1.6
				c0,0,0.1,0.1,0.2,0s0.1-0.5,0.1-0.5c-0.2-1.6-0.6-3.1-1.1-4.6c-0.1-0.2-0.1-0.5,0-0.7c0.1-0.3,0.4-0.2,0.4-0.2
				c1,0.6,1.7,1.7,2,2.8C96,43,96,44.6,95.4,46.2 M102.9,41.4c-1.1,0.2-2.3,0.3-3.4,0.3l-0.3,1c0.7-0.1,1.4-0.1,2.2,0
				c0,0,0.3,0,0.3,0.3c0,0.2,0,0.5,0,0.7c0,0,0,0.2-0.3,0.3c-0.3,0.1-2.7,0.1-2.7,0.1l-0.4,1.3c0,0-0.1,0.3,0.2,0.2
				c1-0.2,2-0.4,3.1-0.5c0.4,0.1,0.7,0.5,0.6,1c-0.1,0.5-2.6,2-4.1,1.9c-0.6-0.1-1.2-0.4-1.4-1c-0.6-1,0.2-2.9,0.2-2.9
				s-0.4-0.9-0.1-1.2c0.2-0.1,0.4-0.2,0.7-0.2l0.6-1.2c-0.4,0-0.8-0.1-1.1-0.4c-0.4-0.5-0.4-0.7-0.1-0.8c1.7-0.4,3.4-0.6,5.2-0.6
				c0,0,0.7-0.1,1.3,1.1C103,40.9,103.3,41.3,102.9,41.4 M77.3,42.6c0,0.4,0,0.8-0.1,1.3c-0.1,0.3-0.1,0.6-0.2,0.8
				c-0.1,0.3-0.3,0.6-0.4,0.8c-0.3,0.5-0.8,1-1.2,1.5c-1.5,1.1-3.3,1.8-5.2,2c-1.3,0.2-2.6,0.1-3.9-0.1l-1.1-0.2c0,0,0,0.3,0,0.4
				c0,0.1-0.1,0.3-0.1,0.4c-0.1,0.2-0.3,0.3-0.5,0.3c-0.3,0.1-0.5,0.1-0.8,0c-0.4-0.2-0.6-0.6-0.6-1c-0.1-0.3-0.1-0.9-0.1-0.9
				l-0.5-0.3c-0.8-0.4-1.5-0.8-2.2-1.3c-0.2-0.1-0.9-0.8-1.1-0.9c-0.5-0.4-0.9-0.9-1.2-1.5c-0.3-0.4-0.3-0.9-0.1-1.3
				c0.4-0.7,1.1-1.2,1.9-1.4c0.8-0.3,1.7-0.6,2.6-0.8c0.3,0,0.5-0.1,0.8-0.1l0,0c0,0,0-0.7,0-0.9s0.2-1.8,0.2-2.1
				c0.1-0.3,0.2-0.7,0.3-1c0.1-0.1,0.3-0.1,0.4,0c0.7,0.4,0.9,1.9,1,2.7c0,0.5,0.1,1.2,0.1,1.2s0.8,0,1.3,0c0.5,0,1,0.1,1.5,0.2
				c0.9,0.1,1.8,0.4,2.6,0.7c0.6,0.3,1.1,0.7,1.3,1.3c0.2,0.4,0.1,0.9-0.1,1.3c-0.3,0.5-0.8,0.8-1.4,0.9c-0.3,0-0.7-0.1-1-0.2
				c-0.1-0.1-0.1-0.1,0-0.2c0,0,0,0,0,0l0.5-0.3l0.2-0.2c0.1-0.1,0.3-0.3,0.3-0.4s-0.3-0.3-0.5-0.4c-1.3-0.4-2.6-0.7-3.9-0.8
				c-0.4,0-0.9,0-0.9,0l0.1,5.2l0.8,0.1c0.2,0,1,0.1,1.3,0.1c1.8,0.1,3.5-0.2,5.2-0.8c0.7-0.3,1.3-0.7,1.8-1.2
				c0.6-0.7,1-1.7,0.9-2.7c-0.2-1.2-0.7-2.4-1.5-3.3c-1.9-2.2-4.3-3.8-7-4.9c-2.5-1-5.1-1.6-7.8-1.7c-1,0-2,0-3,0.2l-0.3,0.1
				c-0.1,0-0.2,0.1-0.2,0.1l0,0h0.1c0.2,0,0.4,0.1,0.6,0.1c0.2,0,0.3,0.1,0.4,0.2c0.1,0.1,0.1,0.2,0,0.3c-0.2,0.2-0.8,0.2-1.1,0.1
				s-0.7-0.1-0.8-0.4c0-0.3,0-0.6,0.2-0.9c0.3-0.5,0.8-0.9,1.4-1c1-0.3,2-0.4,3-0.5c2,0,4,0.2,5.9,0.9c1.3,0.4,2.5,0.9,3.7,1.4
				c0.9,0.4,1.8,0.9,2.7,1.5c0.2,0.2,1.4,1.1,1.6,1.2c0.4,0.3,1,0.8,1.3,1.2c0.8,0.8,1.6,1.8,2.1,2.8c0.1,0.2,0.2,0.4,0.3,0.7
				c0,0.1,0.3,0.6,0.3,0.7c0,0.1,0.1,0.2,0.1,0.4C77.2,42.2,77.3,42.4,77.3,42.6 M63,42c0,0-0.8,0-1.3,0.1c-0.9,0.1-1.8,0.3-2.7,0.5
				c-0.2,0.1-0.7,0.3-0.7,0.5c0,0.2,0.1,0.4,0.3,0.6s0.6,0.6,0.8,0.7c0.9,0.7,1.8,1.2,2.8,1.7l0.8,0.3c0,0,0-1.5,0-3L63,42 M78.9,40
				H79c0.3,0.1,0.6,0.5,0.6,0.8c0.2,1.1,0.3,2.3,0.3,3.4l0.1,1.6c0.1,0.5,0.1,1,0,1.5c0,0.2-0.1,0.3-0.3,0.4
				c-0.2,0.1-0.5,0.1-0.8,0.1c-0.5-0.1-0.7-0.4-0.8-0.9c-0.1-1.5-0.1-3.1,0-4.6c0.1-0.6,0.2-1.2,0.3-1.8C78.6,40.3,78.7,40,78.9,40
				 M78,38.5c-0.1,0.1-0.1,0.3-0.2,0.4c0,0.1-0.1,0.1-0.2,0.2c-0.1,0.1-0.3,0.1-0.5,0c-0.2-0.2-0.4-0.5-0.4-0.8c0-0.1,0-0.3,0-0.4
				c-0.1-0.2-0.2-0.4-0.3-0.6c-0.1-0.3-0.2-0.5-0.2-0.8c0-0.8,0.3-1.5,0.9-2c0.6-0.6,1.2-1,2-1.3c0.8-0.3,1.6-0.4,2.4-0.2
				c0.3,0.1,0.6,0.3,0.8,0.5c0,0,0.1,0.1,0.1,0.1c0.1,0,0.1,0,0.2,0c0.3,0.1,0.5,0.2,0.8,0.3c0.3,0.2,0.5,0.5,0.5,0.8
				c0.1,0.7-0.2,1.4-0.7,1.9c-0.7,0.8-1.6,1.4-2.6,1.8c-0.5,0.2-1.1,0.3-1.7,0.3c-0.2,0-0.3,0-0.5-0.1C78.3,38.6,78.2,38.5,78,38.5
				C78.1,38.5,78,38.5,78,38.5 M79.7,37.2c0.7,0,1.3-0.2,1.9-0.6c0.6-0.3,1.4-0.9,1.3-1.6c0-0.2-0.2-0.4-0.4-0.5
				c-0.2-0.1-0.5-0.1-0.7,0c-0.2,0.1-0.4,0.1-0.6,0.2c-0.8,0.5-1.5,1.1-2.1,1.8c-0.1,0.2-0.2,0.3-0.3,0.4c0,0-0.1,0.1-0.1,0.2
				C79,37.3,79.4,37.3,79.7,37.2 M77.4,36.6c0,0,0.2-0.3,0.4-0.6c0.4-0.5,0.9-1,1.4-1.5l0.3-0.3c0,0-0.3,0-0.4,0
				c-0.4,0.1-0.8,0.3-1.1,0.6c-0.4,0.4-0.9,0.9-0.7,1.4L77.4,36.6 M85.4,42.6h0.1c0.6,0.1,1.2,0.2,1.7,0.4c0.4,0.2,0.7,0.5,0.9,0.8
				c0.3,0.7,0.4,1.5,0.1,2.2c-0.3,0.5-0.7,0.9-1.3,1.2c-0.5,0.2-1,0.4-1.5,0.4c-1,0.1-2-0.1-2.9-0.5c-0.6-0.3-1.1-0.7-1.5-1.2
				c-0.3-0.4-0.3-0.9,0-1.3c0.6-0.6,1.4-0.8,2.2-0.7c0.7,0,1.4,0.2,2.1,0.4c0.3,0.1,0.5,0.2,0.8,0.4c0.1,0.1,0.1,0.2,0.1,0.3
				c-0.1,0.4-1,0.6-1.3,0.6c-0.7,0.1-1.1-0.2-1.8-0.5c-0.2-0.1-0.4-0.1-0.7-0.2c-0.4,0-0.8,0.1-0.9,0.5c0,0.2,0.2,0.4,0.4,0.5
				c0.4,0.2,0.8,0.3,1.2,0.3c1.3,0.1,2.5-0.2,3.6-0.9c0.2-0.1,0.3-0.2,0.3-0.4c0-0.4-0.7-0.6-0.7-0.6c-0.8-0.3-1.7-0.4-2.6-0.5
				c-0.7-0.1-1.8-0.2-2-0.2c-0.3,0-0.5-0.1-0.8-0.2c-0.2-0.1-0.4-0.3-0.5-0.6c-0.1-0.5,0-1,0.3-1.4c0.7-1,2.3-1.3,3.4-1.5
				c1.4-0.2,2.8-0.1,4.1,0.5c0.2,0.1,0.3,0.2,0.2,0.4c-0.1,0.3-0.3,0.6-0.7,0.7c-0.4,0.1-0.9,0.2-1.3,0.2c-1.4,0-2.9,0.1-4.3,0.4
				c-0.1,0-0.2,0.1-0.3,0.1c-0.2,0.2,0.4,0.3,0.5,0.3h0.1L85.4,42.6"/>
		</defs>
		<clipPath id="SVGID_2_">
			<use xlink:href="#SVGID_9_"  style="overflow:visible;"/>
		</clipPath>
		<g id="g26" class="st2">
			<rect id="rect24" x="46.6" y="23.6" class="st1" width="83.9" height="38.4"/>
		</g>
	</g>
	<g>
		<defs>
			<path id="SVGID_11_" d="M66.3,30.4c0,0.1,0,0.2,0,0.3c0,0.1,0.1,0.2,0.2,0.2l0.8,0.3h0.1c0.1,0,0.3-0.1,0.3-0.2
				c2.5-3.6,5.8-6.5,9.7-8.6c9-4.8,19.9-4.2,28.4,1.4c4.4,2.9,7.9,7,10,11.9c0.1,0.1,0.2,0.2,0.4,0.2h0.9c0.1,0,0.2-0.1,0.3-0.1
				c0-0.1,0-0.2,0-0.3c-2.2-5.2-5.8-9.7-10.5-12.8C93.5,13.7,75.4,17.2,66.3,30.4"/>
		</defs>
		<clipPath id="SVGID_3_">
			<use xlink:href="#SVGID_11_"  style="overflow:visible;"/>
		</clipPath>
		<g id="g40" class="st3">
			<g id="g34" class="st4">
				<g id="g32" class="st4">
					<g>
						<defs>
							<rect id="SVGID_13_" x="66.2" y="17.7" width="51.2" height="18.2"/>
						</defs>
						<clipPath id="SVGID_4_">
							<use xlink:href="#SVGID_13_"  style="overflow:visible;"/>
						</clipPath>
						<g id="g30" class="st5">
							
								<image style="overflow:visible;enable-background:new    ;" width="214" height="77" id="image28" xlink:href="2F6C684C.jpg"  transform="matrix(0.24 0 0 0.24 66.0114 17.5615)">
							</image>
						</g>
					</g>
				</g>
			</g>
			<g>
				<defs>
					<rect id="SVGID_15_" x="66.2" y="17.7" width="51.2" height="18.2"/>
				</defs>
				<clipPath id="SVGID_5_">
					<use xlink:href="#SVGID_15_"  style="overflow:visible;"/>
				</clipPath>
				<g id="g38" class="st6">
					
						<image style="overflow:visible;enable-background:new    ;" width="214" height="77" id="image36" xlink:href="2F6C684D.jpg"  transform="matrix(0.24 0 0 0.24 66.0114 17.5615)">
					</image>
				</g>
			</g>
		</g>
	</g>
</g>
</svg>
