<?xml version="1.0" encoding="utf-8"?>
<!-- Generator: Adobe Illustrator 24.0.1, SVG Export Plug-In . SVG Version: 6.00 Build 0)  -->
<svg version="1.1" id="Layer_1" xmlns="http://www.w3.org/2000/svg" xmlns:xlink="http://www.w3.org/1999/xlink" x="0px" y="0px"
	 viewBox="0 0 327 81" style="enable-background:new 0 0 327 81;" xml:space="preserve">
<style type="text/css">
	.st0{fill:#38CE7F;}
	.st1{fill:#FFFFFF;}
	.st2{fill-rule:evenodd;clip-rule:evenodd;fill:#FFFFFF;}
</style>
<g>
	<path class="st0" d="M326.5,70.5c0,5.5-4.5,10-10,10H9.5c-5.5,0-10-4.5-10-10v-61c0-5.5,4.5-10,10-10h307c5.5,0,10,4.5,10,10V70.5z
		"/>
</g>
<g>
	<path class="st1" d="M180.8,44.7l1.9-10.1h2.9l-3.2,14.2h-2.9l-2.3-9.5l-2.3,9.5H172l-3.2-14.2h2.9l1.9,10.1l2.3-10.1h2.5
		L180.8,44.7z"/>
	<path class="st1" d="M194.9,45.9h-5.1l-1,2.9h-3.1l5.3-14.2h2.7l5.3,14.2h-3.1L194.9,45.9z M190.5,43.5h3.6l-1.8-5.3L190.5,43.5z"
		/>
	<path class="st1" d="M209.8,37h-4.4v11.8h-2.9V37h-4.3v-2.4h11.6L209.8,37L209.8,37z"/>
	<path class="st1" d="M222.4,44.1c-0.1,1.5-0.7,2.7-1.7,3.6s-2.4,1.3-4,1.3c-1.8,0-3.3-0.6-4.3-1.8s-1.6-2.9-1.6-5.1v-0.9
		c0-1.4,0.2-2.6,0.7-3.6s1.2-1.8,2.1-2.4s1.9-0.8,3.1-0.8c1.6,0,3,0.4,4,1.3s1.6,2.1,1.7,3.7h-2.9c-0.1-0.9-0.3-1.6-0.8-2
		s-1.1-0.6-2-0.6c-1,0-1.7,0.4-2.2,1s-0.7,1.8-0.7,3.3v1.1c0,1.5,0.2,2.7,0.7,3.4s1.2,1.1,2.2,1.1c0.9,0,1.6-0.2,2-0.6
		s0.7-1.1,0.8-1.9L222.4,44.1L222.4,44.1z"/>
	<path class="st1" d="M235.9,48.8H233v-6.1h-5.7v6.1h-2.9V34.6h2.9v5.8h5.7v-5.8h2.9V48.8z"/>
	<path class="st1" d="M255,48.8h-2.9l-5.7-9.4v9.4h-2.9V34.6h2.9l5.7,9.4v-9.4h2.9V48.8z"/>
	<path class="st1" d="M269.2,42.1c0,1.4-0.2,2.6-0.7,3.7s-1.2,1.9-2.1,2.4s-2,0.9-3.2,0.9s-2.2-0.3-3.2-0.8s-1.6-1.4-2.1-2.4
		s-0.8-2.3-0.8-3.6v-0.7c0-1.4,0.3-2.6,0.8-3.7s1.2-1.9,2.1-2.5s2-0.9,3.2-0.9s2.2,0.3,3.2,0.9s1.6,1.4,2.1,2.5s0.8,2.3,0.8,3.7
		L269.2,42.1L269.2,42.1z M266.3,41.4c0-1.5-0.3-2.6-0.8-3.4s-1.3-1.2-2.3-1.2s-1.7,0.4-2.3,1.1s-0.8,1.9-0.8,3.4V42
		c0,1.5,0.3,2.6,0.8,3.4s1.3,1.2,2.3,1.2s1.7-0.4,2.3-1.2s0.8-1.9,0.8-3.4V41.4z"/>
	<path class="st1" d="M282.4,44.7l1.9-10.1h2.9L284,48.8h-2.9l-2.3-9.5l-2.3,9.5h-2.9l-3.2-14.2h2.9l1.9,10.1l2.3-10.1h2.5
		L282.4,44.7z"/>
</g>
<rect id="rect8" x="40.5" y="14.5" class="st0" width="110" height="55"/>
<rect id="rect10" x="101.8" y="28.6" class="st1" width="4.5" height="23.9"/>
<path id="path12" class="st2" d="M66.1,28.6h4.5v7.9c0.4-0.2,0.9-0.3,1.4-0.3h3.5c2.7,0,4.9,2.2,4.9,4.9v11.3h-4.5v-9.6
	c0-0.8-0.7-1.5-1.5-1.5h-2.3c-0.8,0-1.5,0.7-1.5,1.5l0,0v9.6h-4.5V28.6z"/>
<path id="path14" class="st2" d="M98.1,36.2v11.4c0,2.7-2.2,4.9-4.9,4.9h-4.4c-2.7,0-4.9-2.2-4.9-4.9V36.2h4.5V46
	c0,0.8,0.7,1.5,1.5,1.5l0,0h2.2c0.8,0,1.5-0.7,1.5-1.5l0,0v-9.8H98.1z"/>
<path id="path16" class="st2" d="M124.2,36.2v11.4c0,2.7-2.2,4.9-4.9,4.9h-4.4c-2.7,0-4.9-2.2-4.9-4.9V36.2h4.5V46
	c0,0.8,0.7,1.5,1.5,1.5l0,0h2.2c0.8,0,1.5-0.7,1.5-1.5v-9.9L124.2,36.2z"/>
</svg>
