<?xml version="1.0" encoding="utf-8"?>
<!-- Generator: Adobe Illustrator 24.0.1, SVG Export Plug-In . SVG Version: 6.00 Build 0)  -->
<svg version="1.1" id="Layer_1" xmlns="http://www.w3.org/2000/svg" xmlns:xlink="http://www.w3.org/1999/xlink" x="0px" y="0px"
	 viewBox="0 0 327 81" style="enable-background:new 0 0 327 81;" xml:space="preserve">
<style type="text/css">
	.st0{fill:#FFFFFF;}
	.st1{fill:none;stroke:#707070;stroke-miterlimit:10;}
	.st2{fill:#E50914;}
	.st3{enable-background:new    ;}
</style>
<g>
	<path class="st0" d="M326.5,70.5c0,5.5-4.5,10-10,10H9.5c-5.5,0-10-4.5-10-10v-61c0-5.5,4.5-10,10-10h307c5.5,0,10,4.5,10,10V70.5z
		"/>
	<path class="st1" d="M326.5,70.5c0,5.5-4.5,10-10,10H9.5c-5.5,0-10-4.5-10-10v-61c0-5.5,4.5-10,10-10h307c5.5,0,10,4.5,10,10V70.5z
		"/>
</g>
<rect id="rect8" x="36.8" y="12.7" class="st0" width="110" height="55"/>
<g id="V1.1" transform="translate(-1,-1)">
	<g id="newOnboarding---homePage---newUser">
		<g id="streamingspider">
			<g id="Page-1">
				<path id="Shape" class="st2" d="M65,51c-1.2,0.2-2.3,0.3-3.5,0.4l-3.7-11v11.5c-1.1,0.1-2.2,0.3-3.3,0.5V31.3h3.1l4.2,12v-12H65
					V51z M71.4,39c1.3,0,3.2-0.1,4.3-0.1v3.3c-1.4,0-3.1,0-4.3,0.1v4.9c1.9-0.1,3.8-0.3,5.7-0.3v3.2l-9,0.7V31.3h9v3.3h-5.7V39z
					 M89.1,34.6h-3.3v15.1c-1.1,0-2.2,0-3.2,0V34.6h-3.4v-3.3h10L89.1,34.6z M94.4,38.8h4.4v3.3h-4.4v7.5h-3.2V31.3h9v3.3h-5.8V38.8
					z M105.5,46.7c1.8,0,3.7,0.2,5.5,0.3v3.3c-2.9-0.2-5.8-0.4-8.8-0.4V31.3h3.2v15.4C105.4,46.7,105.5,46.7,105.5,46.7z
					 M113.8,50.5c1,0.1,2.1,0.1,3.2,0.3V31.3h-3.2V50.5z M131.1,31.3l-4.1,10l4.1,11c-1.2-0.2-2.4-0.4-3.7-0.6l-2.2-6l-2.4,5.6
					c-1.2-0.2-2.3-0.3-3.5-0.4l4.2-9.6l-3.8-9.9h3.5l2.1,5.5l2.3-5.5L131.1,31.3z"/>
			</g>
		</g>
	</g>
</g>
<g class="st3">
	<path class="st2" d="M180.8,44.7l1.9-10.1h2.9l-3.2,14.2h-2.9l-2.3-9.5l-2.3,9.5H172l-3.2-14.2h2.9l1.9,10.1l2.3-10.1h2.5
		L180.8,44.7z"/>
	<path class="st2" d="M194.9,45.9h-5.1l-1,2.9h-3.1l5.3-14.2h2.7l5.3,14.2h-3.1L194.9,45.9z M190.5,43.5h3.6l-1.8-5.3L190.5,43.5z"
		/>
	<path class="st2" d="M209.8,37h-4.4v11.8h-2.9V37h-4.3v-2.4h11.6V37z"/>
	<path class="st2" d="M222.4,44.1c-0.1,1.5-0.7,2.7-1.7,3.6s-2.4,1.3-4,1.3c-1.8,0-3.3-0.6-4.3-1.8s-1.6-2.9-1.6-5.1v-0.9
		c0-1.4,0.2-2.6,0.7-3.6s1.2-1.8,2.1-2.4s1.9-0.8,3.1-0.8c1.6,0,3,0.4,4,1.3s1.6,2.1,1.7,3.7h-2.9c-0.1-0.9-0.3-1.6-0.8-2
		s-1.1-0.6-2-0.6c-1,0-1.7,0.3-2.2,1s-0.7,1.8-0.7,3.3v1.1c0,1.5,0.2,2.7,0.7,3.4s1.2,1.1,2.2,1.1c0.9,0,1.6-0.2,2-0.6
		s0.7-1.1,0.8-1.9H222.4z"/>
	<path class="st2" d="M235.9,48.8H233v-6.1h-5.7v6.1h-2.9V34.6h2.9v5.8h5.7v-5.8h2.9V48.8z"/>
	<path class="st2" d="M255,48.8h-2.9l-5.7-9.4v9.4h-2.9V34.6h2.9l5.7,9.4v-9.4h2.9V48.8z"/>
	<path class="st2" d="M269.2,42.1c0,1.4-0.2,2.6-0.7,3.7s-1.2,1.9-2.1,2.4s-2,0.9-3.2,0.9c-1.2,0-2.2-0.3-3.2-0.8s-1.6-1.4-2.1-2.4
		s-0.8-2.3-0.8-3.6v-0.7c0-1.4,0.3-2.6,0.8-3.7s1.2-1.9,2.1-2.5s2-0.9,3.2-0.9s2.2,0.3,3.2,0.9s1.6,1.4,2.1,2.5s0.8,2.3,0.8,3.7
		V42.1z M266.3,41.4c0-1.5-0.3-2.6-0.8-3.4s-1.3-1.2-2.3-1.2c-1,0-1.7,0.4-2.3,1.1s-0.8,1.9-0.8,3.4v0.7c0,1.5,0.3,2.6,0.8,3.4
		s1.3,1.2,2.3,1.2c1,0,1.7-0.4,2.3-1.2s0.8-1.9,0.8-3.4V41.4z"/>
	<path class="st2" d="M282.4,44.7l1.9-10.1h2.9l-3.2,14.2h-2.9l-2.3-9.5l-2.3,9.5h-2.9l-3.2-14.2h2.9l1.9,10.1l2.3-10.1h2.5
		L282.4,44.7z"/>
</g>
</svg>
