<?xml version="1.0" encoding="utf-8"?>
<!-- Generator: Adobe Illustrator 24.0.1, SVG Export Plug-In . SVG Version: 6.00 Build 0)  -->
<svg version="1.1" id="Layer_1" xmlns="http://www.w3.org/2000/svg" xmlns:xlink="http://www.w3.org/1999/xlink" x="0px" y="0px"
	 viewBox="0 0 327 81" style="enable-background:new 0 0 327 81;" xml:space="preserve">
<style type="text/css">
	.st0{fill:#FFFFFF;}
</style>
<g>
	<path d="M326.5,70.5c0,5.5-4.5,10-10,10H9.5c-5.5,0-10-4.5-10-10v-61c0-5.5,4.5-10,10-10h307c5.5,0,10,4.5,10,10V70.5z"/>
</g>
<g>
	<path class="st0" d="M180.8,44.7l1.9-10.1h2.9l-3.2,14.2h-2.9l-2.3-9.5l-2.3,9.5H172l-3.2-14.2h2.9l1.9,10.1l2.3-10.1h2.5
		L180.8,44.7z"/>
	<path class="st0" d="M194.9,45.9h-5.1l-1,2.9h-3.1l5.3-14.2h2.7l5.3,14.2h-3.1L194.9,45.9z M190.5,43.5h3.6l-1.8-5.3L190.5,43.5z"
		/>
	<path class="st0" d="M209.8,37h-4.4v11.8h-2.9V37h-4.3v-2.4h11.6V37z"/>
	<path class="st0" d="M222.4,44.1c-0.1,1.5-0.7,2.7-1.7,3.6s-2.4,1.3-4,1.3c-1.8,0-3.3-0.6-4.3-1.8s-1.6-2.9-1.6-5.1v-0.9
		c0-1.4,0.2-2.6,0.7-3.6s1.2-1.8,2.1-2.4s1.9-0.8,3.1-0.8c1.6,0,3,0.4,4,1.3s1.6,2.1,1.7,3.7h-2.9c-0.1-0.9-0.3-1.6-0.8-2
		s-1.1-0.6-2-0.6c-1,0-1.7,0.4-2.2,1s-0.7,1.8-0.7,3.3v1.1c0,1.5,0.2,2.7,0.7,3.4s1.2,1.1,2.2,1.1c0.9,0,1.6-0.2,2-0.6
		s0.7-1.1,0.8-1.9H222.4z"/>
	<path class="st0" d="M235.9,48.8H233v-6.1h-5.7v6.1h-2.9V34.6h2.9v5.8h5.7v-5.8h2.9V48.8z"/>
	<path class="st0" d="M255,48.8h-2.9l-5.7-9.4v9.4h-2.9V34.6h2.9l5.7,9.4v-9.4h2.9V48.8z"/>
	<path class="st0" d="M269.2,42.1c0,1.4-0.2,2.6-0.7,3.7s-1.2,1.9-2.1,2.4s-2,0.9-3.2,0.9c-1.2,0-2.2-0.3-3.2-0.8s-1.6-1.4-2.1-2.4
		s-0.8-2.3-0.8-3.6v-0.7c0-1.4,0.3-2.6,0.8-3.7s1.2-1.9,2.1-2.5s2-0.9,3.2-0.9s2.2,0.3,3.2,0.9s1.6,1.4,2.1,2.5s0.8,2.3,0.8,3.7
		V42.1z M266.3,41.4c0-1.5-0.3-2.6-0.8-3.4s-1.3-1.2-2.3-1.2c-1,0-1.7,0.4-2.3,1.1s-0.8,1.9-0.8,3.4v0.7c0,1.5,0.3,2.6,0.8,3.4
		s1.3,1.2,2.3,1.2c1,0,1.7-0.4,2.3-1.2s0.8-1.9,0.8-3.4V41.4z"/>
	<path class="st0" d="M282.4,44.7l1.9-10.1h2.9l-3.2,14.2h-2.9l-2.3-9.5l-2.3,9.5h-2.9l-3.2-14.2h2.9l1.9,10.1l2.3-10.1h2.5
		L282.4,44.7z"/>
</g>
<rect id="rect8_1_" x="36.9" y="12.2" width="110" height="55"/>
<g id="Light">
	<path id="path10" class="st0" d="M68.5,30.4c1-1.2,1.5-2.8,1.4-4.4c-1.5,0.2-3,0.9-4,2.1c-1,1.1-1.5,2.6-1.4,4.2
		C66,32.4,67.5,31.7,68.5,30.4"/>
	<path id="path12" class="st0" d="M68.5,30.3c1-1.2,1.5-2.7,1.4-4.3c-1.5,0.2-3,0.9-4,2.1c-1,1.1-1.5,2.6-1.4,4.2
		C66,32.3,67.6,31.6,68.5,30.3"/>
	<path id="path14" class="st0" d="M69.8,32.6c-2.2-0.1-4.1,1.3-5.2,1.3c-1,0-2.7-1.2-4.5-1.2c-2.3,0.1-4.5,1.4-5.6,3.4
		c-2.4,4.2-0.6,10.3,1.7,13.6c1.1,1.7,2.5,3.4,4.3,3.4c1.8,0,2.4-1.1,4.4-1.1c2.1,0,2.7,1.1,4.5,1.1c1.8,0,3-1.7,4.2-3.3
		c0.8-1.2,1.4-2.5,1.9-3.8c-2.2-1-3.6-3.1-3.6-5.5c0-2.1,1.1-4.1,3-5.2C73.7,33.6,71.9,32.6,69.8,32.6"/>
	<path id="path16" class="st0" d="M87.4,30.4v4.3h3.4v3h-3.4v10c0,1.6,0.7,2.3,2.2,2.3c0.4,0,0.8,0,1.2-0.1v2.9
		c-0.7,0.1-1.4,0.2-2.1,0.2c-3.7,0-5.2-1.4-5.2-4.9V37.6H81v-3h2.6v-4.3L87.4,30.4z"/>
	<path id="path18" class="st0" d="M103.4,52.9h-4l-6.6-18.3h4l4.6,14.5l0,0l4.6-14.6h3.9L103.4,52.9z"/>
	<polygon id="polygon20" class="st0" points="123.1,34.7 119.6,34.7 119.6,42 112.4,42 112.4,45.4 119.6,45.4 119.6,52.7 
		123.1,52.7 123.1,45.4 130.3,45.4 130.3,42 123.1,42 	"/>
</g>
</svg>
