<?xml version="1.0" encoding="utf-8"?>
<!-- Generator: Adobe Illustrator 24.0.1, SVG Export Plug-In . SVG Version: 6.00 Build 0)  -->
<svg version="1.1" id="Layer_1" xmlns="http://www.w3.org/2000/svg" xmlns:xlink="http://www.w3.org/1999/xlink" x="0px" y="0px"
	 viewBox="0 0 327 81" style="enable-background:new 0 0 327 81;" xml:space="preserve">
<style type="text/css">
	.st0{fill:#212F3C;}
	.st1{fill:#18A6E1;}
	.st2{fill-rule:evenodd;clip-rule:evenodd;fill:#18A6E1;}
	.st3{fill-rule:evenodd;clip-rule:evenodd;fill:#FFFFFF;}
</style>
<g>
	<path class="st0" d="M326.5,70.5c0,5.5-4.5,10-10,10H9.5c-5.5,0-10-4.5-10-10v-61c0-5.5,4.5-10,10-10h307c5.5,0,10,4.5,10,10V70.5z
		"/>
</g>
<g>
	<path class="st1" d="M180.8,44.7l1.9-10.1h2.9l-3.2,14.2h-2.9l-2.3-9.5l-2.3,9.5H172l-3.2-14.2h2.9l1.9,10.1l2.3-10.1h2.5
		L180.8,44.7z"/>
	<path class="st1" d="M194.9,45.9h-5.1l-1,2.9h-3.1l5.3-14.2h2.7l5.3,14.2h-3.1L194.9,45.9z M190.5,43.5h3.6l-1.8-5.3L190.5,43.5z"
		/>
	<path class="st1" d="M209.8,37h-4.4v11.8h-2.9V37h-4.3v-2.4h11.6V37z"/>
	<path class="st1" d="M222.4,44.1c-0.1,1.5-0.7,2.7-1.7,3.6s-2.4,1.3-4,1.3c-1.8,0-3.3-0.6-4.3-1.8s-1.6-2.9-1.6-5.1v-0.9
		c0-1.4,0.2-2.6,0.7-3.6s1.2-1.8,2.1-2.4s1.9-0.8,3.1-0.8c1.6,0,3,0.4,4,1.3s1.6,2.1,1.7,3.7h-2.9c-0.1-0.9-0.3-1.6-0.8-2
		s-1.1-0.6-2-0.6c-1,0-1.7,0.4-2.2,1s-0.7,1.8-0.7,3.3v1.1c0,1.5,0.2,2.7,0.7,3.4s1.2,1.1,2.2,1.1c0.9,0,1.6-0.2,2-0.6
		s0.7-1.1,0.8-1.9H222.4z"/>
	<path class="st1" d="M235.9,48.8H233v-6.1h-5.7v6.1h-2.9V34.6h2.9v5.8h5.7v-5.8h2.9V48.8z"/>
	<path class="st1" d="M255,48.8h-2.9l-5.7-9.4v9.4h-2.9V34.6h2.9l5.7,9.4v-9.4h2.9V48.8z"/>
	<path class="st1" d="M269.2,42.1c0,1.4-0.2,2.6-0.7,3.7s-1.2,1.9-2.1,2.4s-2,0.9-3.2,0.9c-1.2,0-2.2-0.3-3.2-0.8s-1.6-1.4-2.1-2.4
		s-0.8-2.3-0.8-3.6v-0.7c0-1.4,0.3-2.6,0.8-3.7s1.2-1.9,2.1-2.5s2-0.9,3.2-0.9s2.2,0.3,3.2,0.9s1.6,1.4,2.1,2.5s0.8,2.3,0.8,3.7
		V42.1z M266.3,41.4c0-1.5-0.3-2.6-0.8-3.4s-1.3-1.2-2.3-1.2c-1,0-1.7,0.4-2.3,1.1s-0.8,1.9-0.8,3.4v0.7c0,1.5,0.3,2.6,0.8,3.4
		s1.3,1.2,2.3,1.2c1,0,1.7-0.4,2.3-1.2s0.8-1.9,0.8-3.4V41.4z"/>
	<path class="st1" d="M282.4,44.7l1.9-10.1h2.9l-3.2,14.2h-2.9l-2.3-9.5l-2.3,9.5h-2.9l-3.2-14.2h2.9l1.9,10.1l2.3-10.1h2.5
		L282.4,44.7z"/>
</g>
<rect id="rect8" x="36" y="13.9" class="st0" width="110" height="55"/>
<path id="path10" class="st2" d="M68,47.3v0.1c0,0.1,0.1,0.3,0.2,0.4c6.1,6.1,14.4,9.4,23,9.5c6.3,0,13.7-2.2,18.8-6.2
	c0.4-0.2,0.5-0.6,0.3-1s-0.6-0.5-1-0.3c0,0,0,0-0.1,0c-5.5,2.5-11.5,3.8-17.6,3.9c-8.1,0-16.1-2.3-23-6.6C68.7,47,68.6,47,68.4,47
	C68.2,47,68.1,47.1,68,47.3"/>
<path id="path12" class="st2" d="M105.9,47.9c-0.2,0.1-0.3,0.2-0.3,0.4v0.1c0,0.2,0.2,0.3,0.4,0.2c1.6-0.2,5.3-0.7,5.9,0.2
	s-0.7,4.6-1.3,6.2c-0.2,0.5,0.2,0.7,0.6,0.3c2.7-2.5,3.4-7.6,2.9-8.3c-0.9-0.5-2-0.8-3.1-0.7C109.2,46.4,107.4,46.9,105.9,47.9"/>
<path id="path14" class="st3" d="M97.7,42.6c-0.1,0-0.2,0-0.3,0c-0.1,0-0.1-0.1-0.2-0.1c-0.1-0.1-0.1-0.2-0.2-0.3l-2.9-7.6L94,34.3
	c0-0.1,0-0.1,0-0.2c0-0.2,0.1-0.3,0.3-0.3H96c0.3,0,0.5,0.2,0.6,0.4c0,0,0,0,0,0l1.7,6l1.8-6c0-0.3,0.3-0.5,0.6-0.4c0,0,0,0,0,0h1.6
	c0.2,0,0.3,0.1,0.3,0.3c0,0.1,0,0.1,0,0.2l-0.1,0.2l-2.9,7.6c0,0.1-0.1,0.2-0.1,0.3c0,0.1-0.1,0.1-0.2,0.1c-0.1,0-0.2,0-0.3,0
	L97.7,42.6z M104.3,42.6c-0.2,0-0.4-0.1-0.4-0.3c0,0,0-0.1,0-0.1v-7.8c0-0.1,0-0.2,0.1-0.3c0.1-0.1,0.2-0.1,0.3-0.1h1.6
	c0.1,0,0.2,0,0.3,0.1c0.1,0.1,0.1,0.2,0.1,0.3v7.8c0,0.1,0,0.2-0.1,0.3c-0.1,0.1-0.2,0.1-0.3,0.1L104.3,42.6z M105.2,32.6
	c-0.4,0-0.7-0.1-1-0.4c-0.5-0.5-0.5-1.4,0-1.9c0.6-0.5,1.5-0.5,2.1,0c0.5,0.5,0.5,1.4,0,1.9C105.9,32.5,105.6,32.6,105.2,32.6
	L105.2,32.6z M111.6,42.8c-0.7,0-1.3-0.2-1.9-0.6c-0.6-0.4-1-0.9-1.2-1.6c-0.3-0.8-0.4-1.6-0.4-2.4c-0.1-1.2,0.3-2.4,1-3.4
	c0.6-0.8,1.6-1.3,2.6-1.3c0.8,0,1.7,0.2,2.3,0.8v-4c0-0.1,0-0.2,0.1-0.3c0.1-0.1,0.2-0.1,0.3-0.1h1.6c0.1,0,0.2,0,0.3,0.1
	c0.1,0.1,0.1,0.2,0.1,0.3v11.7c0,0.2-0.1,0.4-0.3,0.4c0,0-0.1,0-0.1,0h-1.4c-0.1,0-0.2,0-0.3-0.1c-0.1-0.1-0.1-0.2-0.2-0.3l-0.1-0.4
	C113.4,42.5,112.5,42.8,111.6,42.8L111.6,42.8z M112.4,40.9c0.6,0,1.1-0.2,1.6-0.5v-4.5c-0.5-0.3-1.1-0.4-1.7-0.4
	c-0.5,0-1,0.2-1.3,0.7c-0.3,0.6-0.5,1.3-0.4,2c0,0.7,0.1,1.4,0.5,2C111.3,40.6,111.8,40.9,112.4,40.9L112.4,40.9z M131.3,42.9
	c-1.2,0.1-2.3-0.4-3.1-1.2c-0.8-0.9-1.2-2.2-1.1-3.4c-0.1-1.2,0.3-2.4,1.1-3.4c1.8-1.6,4.5-1.6,6.3,0c0.8,0.9,1.2,2.1,1.1,3.4
	c0.1,1.2-0.3,2.4-1.1,3.4C133.6,42.5,132.5,42.9,131.3,42.9L131.3,42.9z M131.3,41c1.2,0,1.8-0.9,1.8-2.7c0-1.8-0.6-2.7-1.8-2.7
	c-1.2,0-1.8,0.9-1.8,2.7S130.1,40.9,131.3,41L131.3,41z M122,39c-0.5,0-1.1-0.1-1.6-0.2c0,0.6,0.2,1.2,0.7,1.6
	c0.5,0.4,1.1,0.5,1.7,0.5c0.3,0,0.6,0,0.9-0.1c0.4-0.1,0.8-0.2,1.2-0.3h0.1h0c0.2,0,0.3,0.1,0.3,0.4v0.8c0,0.1,0,0.3-0.1,0.4
	c-0.1,0.1-0.2,0.2-0.3,0.2c-0.8,0.3-1.7,0.5-2.6,0.5c-1.2,0.1-2.3-0.3-3.1-1.1c-0.8-0.9-1.2-2.1-1.1-3.3c-0.1-1.3,0.3-2.5,1.1-3.5
	c0.8-0.8,1.9-1.3,3.1-1.2c0.9-0.1,1.7,0.2,2.4,0.8c0.6,0.5,0.9,1.2,0.9,2c0,0.7-0.3,1.5-0.9,1.9C123.9,38.8,123,39.1,122,39
	 M122.3,35.4c-1.1,0-1.7,0.7-1.8,2c0.5,0.1,1,0.1,1.5,0.1c0.4,0,0.8-0.1,1.1-0.3c0.3-0.2,0.4-0.5,0.4-0.8
	C123.4,35.8,123,35.4,122.3,35.4"/>
<path id="path16" class="st2" d="M50.6,35.5c-0.6,0-1.2,0.2-1.7,0.5v4.5c0.5,0.3,1.1,0.5,1.7,0.5c0.5,0,1.1-0.2,1.4-0.7
	c0.3-0.6,0.5-1.3,0.5-2c0.1-0.7-0.1-1.5-0.4-2.1C51.7,35.7,51.2,35.5,50.6,35.5L50.6,35.5z M46.5,34.3c0-0.2,0.1-0.4,0.3-0.4
	c0,0,0.1,0,0.1,0h1.2c0.2,0,0.4,0.1,0.5,0.4l0.1,0.4c0.4-0.3,0.8-0.6,1.2-0.8c0.5-0.2,1-0.3,1.5-0.3c1,0,2,0.4,2.6,1.2
	c0.7,0.9,1,2.1,1,3.3c0,0.8-0.1,1.7-0.5,2.5c-0.3,0.7-0.7,1.2-1.3,1.6c-0.5,0.4-1.2,0.6-1.9,0.6c-0.4,0-0.9-0.1-1.3-0.2
	c-0.4-0.1-0.8-0.4-1.1-0.7v3.7c0,0.1,0,0.2-0.1,0.3c-0.1,0.1-0.2,0.1-0.3,0.1h-1.6c-0.2,0-0.4-0.1-0.4-0.3c0,0,0-0.1,0-0.1V34.3z"/>
<path id="path18" class="st2" d="M58.9,35.2c0.4-0.4,0.8-0.8,1.3-1.1c0.4-0.2,0.8-0.3,1.3-0.3h0.2c0.1,0,0.2,0,0.3,0.1
	c0.1,0.1,0.1,0.2,0.1,0.3v1.4c0,0.1,0,0.2-0.1,0.3c-0.1,0.1-0.2,0.1-0.3,0.1h-0.3h-0.5c-0.3,0-0.7,0-1,0.1c-0.3,0.1-0.6,0.1-1,0.3
	v5.7c0,0.1,0,0.2-0.1,0.3c-0.1,0.1-0.2,0.1-0.3,0.1H57c-0.1,0-0.2,0-0.3-0.1c-0.1-0.1-0.1-0.2-0.1-0.3v-7.9c0-0.1,0-0.2,0.1-0.3
	c0.1-0.1,0.2-0.1,0.3-0.1h1.2c0.2,0,0.4,0.1,0.5,0.4L58.9,35.2L58.9,35.2z"/>
<path id="path20" class="st2" d="M63.4,34.3c0-0.2,0.1-0.4,0.3-0.4c0,0,0.1,0,0.1,0h1.6c0.1,0,0.2,0,0.3,0.1
	c0.1,0.1,0.1,0.2,0.1,0.3v7.8c0,0.1,0,0.2-0.1,0.3c-0.1,0.1-0.2,0.1-0.3,0.1h-1.6c-0.1,0-0.2,0-0.3-0.1c-0.1-0.1-0.1-0.2-0.1-0.3
	V34.3z M64.6,32.6c-0.4,0-0.7-0.1-1-0.4c-0.5-0.5-0.5-1.4,0-1.9c0.3-0.2,0.6-0.4,1-0.4c0.4,0,0.7,0.1,1,0.4c0.5,0.5,0.5,1.4,0,1.9
	C65.3,32.4,65,32.6,64.6,32.6z"/>
<path id="path22" class="st2" d="M70.2,34.7c0.5-0.3,1-0.6,1.6-0.8c0.5-0.2,1-0.3,1.5-0.3c0.9-0.1,1.7,0.3,2.2,1.1
	c0.5-0.4,1-0.6,1.6-0.8c0.5-0.2,1-0.3,1.6-0.3c0.7,0,1.3,0.2,1.8,0.7c0.5,0.5,0.7,1.2,0.7,1.9v6c0,0.1,0,0.2-0.1,0.3
	c-0.1,0.1-0.2,0.1-0.3,0.1H79c-0.1,0-0.2,0-0.3-0.1c-0.1-0.1-0.1-0.2-0.1-0.3v-5.5c0-0.8-0.3-1.2-1-1.2c-0.6,0-1.3,0.2-1.8,0.5v6.2
	c0,0.1,0,0.2-0.1,0.3c-0.1,0.1-0.2,0.1-0.3,0.1h-1.6c-0.1,0-0.2,0-0.3-0.1c-0.1-0.1-0.1-0.2-0.1-0.3v-5.5c0-0.8-0.3-1.2-1-1.2
	c-0.6,0-1.3,0.2-1.9,0.5v6.2c0,0.1,0,0.2-0.1,0.3c-0.1,0.1-0.2,0.1-0.3,0.1h-1.7c-0.1,0-0.2,0-0.3-0.1c-0.1-0.1-0.1-0.2-0.1-0.3
	v-7.8c0-0.1,0-0.2,0.1-0.3c0.1-0.1,0.2-0.1,0.3-0.1h1.2c0.2,0,0.4,0.1,0.5,0.4L70.2,34.7z"/>
<path id="path24" class="st2" d="M86.7,35.4c-1.1,0-1.7,0.7-1.9,2c0.5,0.1,1,0.1,1.5,0.1c0.4,0,0.9-0.1,1.3-0.3
	c0.3-0.2,0.4-0.5,0.4-0.8C88,35.7,87.6,35.4,86.7,35.4 M86.5,39c-0.6,0-1.1-0.1-1.7-0.2c0,0.6,0.3,1.2,0.7,1.6
	c0.5,0.4,1.1,0.5,1.8,0.5c0.3,0,0.6,0,0.9-0.1c0.4-0.1,0.8-0.1,1.2-0.3h0.1h0.1c0.2,0,0.3,0.1,0.3,0.4v0.8c0,0.1,0,0.3-0.1,0.4
	c-0.1,0.1-0.2,0.2-0.3,0.2c-0.8,0.3-1.7,0.5-2.6,0.5c-1.2,0.1-2.4-0.3-3.2-1.2c-0.8-0.9-1.2-2.1-1.1-3.3c-0.1-1.3,0.3-2.5,1.2-3.5
	c0.8-0.9,2-1.3,3.2-1.3c0.9-0.1,1.8,0.2,2.5,0.8c0.6,0.5,0.9,1.3,0.9,2c0,0.8-0.3,1.5-1,1.9C88.4,38.9,87.4,39.1,86.5,39"/>
</svg>
