<?xml version="1.0" encoding="utf-8"?>
<!-- Generator: Adobe Illustrator 24.0.1, SVG Export Plug-In . SVG Version: 6.00 Build 0)  -->
<svg version="1.1"
	 id="Layer_2_1_" inkscape:version="0.92.4 (5da689c313, 2019-01-14)" sodipodi:docname="amazon_prime.svg" xmlns:cc="http://creativecommons.org/ns#" xmlns:dc="http://purl.org/dc/elements/1.1/" xmlns:inkscape="http://www.inkscape.org/namespaces/inkscape" xmlns:rdf="http://www.w3.org/1999/02/22-rdf-syntax-ns#" xmlns:sodipodi="http://sodipodi.sourceforge.net/DTD/sodipodi-0.dtd" xmlns:svg="http://www.w3.org/2000/svg"
	 xmlns="http://www.w3.org/2000/svg" xmlns:xlink="http://www.w3.org/1999/xlink" x="0px" y="0px" viewBox="0 0 110 55"
	 style="enable-background:new 0 0 110 55;" xml:space="preserve">
<style type="text/css">
	.st0{fill:#2C2C2C;}
	.st1{fill-rule:evenodd;clip-rule:evenodd;fill:#828282;}
	.st2{fill-rule:evenodd;clip-rule:evenodd;fill:#FFFFFF;}
</style>
<sodipodi:namedview  bordercolor="#666666" borderopacity="1" gridtolerance="10" guidetolerance="10" id="namedview27" inkscape:current-layer="Layer_2" inkscape:cx="56" inkscape:cy="26.5" inkscape:pageopacity="0" inkscape:pageshadow="2" inkscape:window-height="480" inkscape:window-maximized="0" inkscape:window-width="640" inkscape:window-x="0" inkscape:window-y="0" inkscape:zoom="2.5175439" objecttolerance="10" pagecolor="#ffffff" showgrid="false">
	</sodipodi:namedview>
<title  id="title6">Prime Video - rounded corners</title>
<rect id="rect8" class="st0" width="110" height="55"/>
<path id="path10" inkscape:connector-curvature="0" class="st1" d="M32,33.4v0.1c0,0.1,0.1,0.3,0.2,0.4c6.1,6.1,14.4,9.4,23,9.5
	c6.3,0,13.7-2.2,18.8-6.2c0.4-0.2,0.5-0.6,0.3-1s-0.6-0.5-1-0.3c0,0,0,0-0.1,0c-5.5,2.5-11.5,3.8-17.5,3.9c-8.1,0-16.1-2.3-23-6.6
	c-0.1-0.1-0.2-0.1-0.3-0.1C32.2,33,32,33.2,32,33.4"/>
<path id="path12" inkscape:connector-curvature="0" class="st1" d="M69.8,34c-0.2,0.1-0.3,0.2-0.3,0.4v0.1c0,0.2,0.2,0.3,0.4,0.2
	c1.6-0.2,5.3-0.7,5.9,0.2s-0.7,4.6-1.3,6.2c-0.2,0.5,0.2,0.7,0.6,0.3c2.7-2.5,3.4-7.6,2.9-8.3c-0.9-0.5-2-0.8-3.1-0.7
	C73.2,32.4,71.4,33,69.8,34"/>
<path id="path14" inkscape:connector-curvature="0" class="st2" d="M61.6,28.7c-0.1,0-0.2,0-0.3,0c-0.1,0-0.1-0.1-0.2-0.1
	c-0.1-0.1-0.1-0.2-0.2-0.3l-2.9-7.6L58,20.4c0-0.1,0-0.1,0-0.2c0-0.2,0.1-0.3,0.3-0.3H60c0.3,0,0.5,0.2,0.6,0.4c0,0,0,0,0,0l1.7,6
	l1.8-6c0-0.3,0.3-0.5,0.6-0.4c0,0,0,0,0,0h1.6c0.2,0,0.3,0.1,0.3,0.3c0,0.1,0,0.1,0,0.2l-0.1,0.2l-2.9,7.6c0,0.1-0.1,0.2-0.1,0.3
	c0,0.1-0.1,0.1-0.2,0.1c-0.1,0-0.2,0-0.3,0L61.6,28.7z M68.3,28.7c-0.2,0-0.4-0.1-0.4-0.3c0,0,0-0.1,0-0.1v-7.8c0-0.1,0-0.2,0.1-0.3
	c0.1-0.1,0.2-0.1,0.3-0.1h1.6c0.1,0,0.2,0,0.3,0.1c0.1,0.1,0.1,0.2,0.1,0.3v7.8c0,0.1,0,0.2-0.1,0.3c-0.1,0.1-0.2,0.1-0.3,0.1
	L68.3,28.7z M69.1,18.7c-0.4,0-0.7-0.1-1-0.4c-0.5-0.5-0.5-1.4,0-1.9c0.6-0.5,1.5-0.5,2.1,0c0.5,0.5,0.5,1.4,0,1.9
	C69.9,18.6,69.5,18.7,69.1,18.7L69.1,18.7z M75.5,28.9c-0.7,0-1.3-0.2-1.9-0.6c-0.6-0.4-1-0.9-1.2-1.6C72.1,26,72,25.2,72,24.4
	c-0.1-1.2,0.3-2.4,1-3.4c0.6-0.8,1.6-1.3,2.6-1.3c0.8,0,1.7,0.2,2.3,0.8v-4c0-0.1,0-0.2,0.1-0.3c0.1-0.1,0.2-0.1,0.3-0.1H80
	c0.1,0,0.2,0,0.3,0.1c0.1,0.1,0.1,0.2,0.1,0.3v11.8c0,0.2-0.1,0.4-0.3,0.4c0,0-0.1,0-0.1,0h-1.4c-0.1,0-0.2,0-0.3-0.1
	c-0.1-0.1-0.1-0.2-0.2-0.3L78,27.9C77.3,28.5,76.4,28.9,75.5,28.9L75.5,28.9z M76.3,27c0.6,0,1.1-0.2,1.6-0.5V22
	c-0.5-0.3-1.1-0.4-1.7-0.4c-0.5,0-1,0.2-1.3,0.7c-0.3,0.6-0.5,1.3-0.4,2c0,0.7,0.1,1.4,0.5,2C75.2,26.7,75.8,26.9,76.3,27L76.3,27z
	 M95.3,28.9c-1.2,0.1-2.3-0.4-3.1-1.2c-0.8-0.9-1.2-2.2-1.1-3.4c-0.1-1.2,0.3-2.4,1.1-3.4c1.8-1.6,4.5-1.6,6.3,0
	c0.8,0.9,1.2,2.1,1.1,3.4c0.1,1.2-0.3,2.4-1.1,3.4C97.6,28.6,96.4,29,95.3,28.9L95.3,28.9z M95.3,27c1.2,0,1.8-0.9,1.8-2.7
	c0-1.8-0.6-2.7-1.8-2.7s-1.8,0.9-1.8,2.7S94.1,27,95.3,27L95.3,27z M86,25.1c-0.5,0-1.1-0.1-1.6-0.2c0,0.6,0.2,1.2,0.7,1.6
	c0.5,0.4,1.1,0.5,1.7,0.5c0.3,0,0.6,0,0.9-0.1c0.4-0.1,0.8-0.2,1.2-0.3H89h0c0.2,0,0.3,0.1,0.3,0.4v0.8c0,0.1,0,0.3-0.1,0.4
	c-0.1,0.1-0.2,0.2-0.3,0.2c-0.8,0.3-1.7,0.5-2.6,0.5c-1.2,0.1-2.3-0.3-3.1-1.1c-0.8-0.9-1.2-2.1-1.1-3.3C82,23.2,82.4,22,83.3,21
	c0.8-0.8,1.9-1.3,3.1-1.2c0.9-0.1,1.7,0.2,2.4,0.8c0.6,0.5,0.9,1.2,0.9,2c0,0.7-0.3,1.5-0.9,1.9C87.9,24.9,86.9,25.1,86,25.1
	 M86.2,21.5c-1.1,0-1.7,0.7-1.8,2c0.5,0.1,1,0.1,1.5,0.1c0.4,0,0.8-0.1,1.1-0.3c0.3-0.2,0.4-0.5,0.4-0.8
	C87.4,21.8,87,21.5,86.2,21.5"/>
<path id="path16" inkscape:connector-curvature="0" class="st1" d="M14.5,21.6c-0.6,0-1.2,0.2-1.7,0.5v4.5c0.5,0.3,1.1,0.5,1.7,0.5
	c0.5,0,1.1-0.2,1.4-0.6c0.3-0.6,0.5-1.3,0.4-2c0.1-0.7-0.1-1.5-0.4-2.1C15.7,21.8,15.1,21.6,14.5,21.6L14.5,21.6z M10.4,20.4
	c0-0.2,0.1-0.4,0.3-0.4c0,0,0.1,0,0.1,0h1.2c0.2,0,0.4,0.1,0.5,0.4l0.1,0.4c0.4-0.3,0.8-0.6,1.2-0.8c0.5-0.2,1-0.3,1.5-0.3
	c1,0,2,0.4,2.6,1.2c0.7,0.9,1,2.1,1,3.3c0,0.8-0.1,1.7-0.5,2.5c-0.3,0.7-0.7,1.2-1.3,1.6c-0.5,0.4-1.2,0.6-1.9,0.6
	c-0.4,0-0.9-0.1-1.3-0.2c-0.4-0.1-0.8-0.4-1.1-0.6v3.7c0,0.1,0,0.2-0.1,0.3c-0.1,0.1-0.2,0.1-0.3,0.1h-1.6c-0.2,0-0.4-0.1-0.4-0.3
	c0,0,0-0.1,0-0.1V20.4z"/>
<path id="path18" inkscape:connector-curvature="0" class="st1" d="M22.9,21.3c0.4-0.4,0.8-0.8,1.3-1.1c0.4-0.2,0.8-0.3,1.3-0.3h0.2
	c0.1,0,0.2,0,0.3,0.1c0.1,0.1,0.1,0.2,0.1,0.3v1.4c0,0.1,0,0.2-0.1,0.3c-0.1,0.1-0.2,0.1-0.3,0.1h-0.3h-0.5c-0.3,0-0.7,0-1,0.1
	c-0.3,0.1-0.6,0.1-1,0.3v5.7c0,0.1,0,0.2-0.1,0.3c-0.1,0.1-0.2,0.1-0.3,0.1H21c-0.1,0-0.2,0-0.3-0.1c-0.1-0.1-0.1-0.2-0.1-0.3v-7.9
	c0-0.1,0-0.2,0.1-0.3C20.8,20,20.9,20,21,20h1.2c0.2,0,0.4,0.1,0.5,0.4L22.9,21.3L22.9,21.3z"/>
<path id="path20" inkscape:connector-curvature="0" class="st1" d="M27.3,20.4c0-0.2,0.1-0.4,0.3-0.4c0,0,0.1,0,0.1,0h1.6
	c0.1,0,0.2,0,0.3,0.1c0.1,0.1,0.1,0.2,0.1,0.3v7.8c0,0.1,0,0.2-0.1,0.3c-0.1,0.1-0.2,0.1-0.3,0.1h-1.6c-0.1,0-0.2,0-0.3-0.1
	c-0.1-0.1-0.1-0.2-0.1-0.3V20.4z M28.5,18.6c-0.4,0-0.7-0.1-1-0.4c-0.5-0.5-0.5-1.4,0-1.9c0.3-0.2,0.6-0.4,1-0.4
	c0.4,0,0.7,0.1,1,0.4c0.5,0.5,0.5,1.4,0,1.9C29.3,18.5,28.9,18.6,28.5,18.6z"/>
<path id="path22" inkscape:connector-curvature="0" class="st1" d="M34.1,20.8c0.5-0.3,1-0.6,1.6-0.8c0.5-0.2,1-0.3,1.5-0.3
	c0.9-0.1,1.7,0.3,2.1,1.1c0.5-0.4,1-0.6,1.6-0.8c0.5-0.2,1-0.3,1.6-0.3c0.7,0,1.3,0.2,1.8,0.7c0.5,0.5,0.7,1.2,0.7,1.9v6
	c0,0.1,0,0.2-0.1,0.3c-0.1,0.1-0.2,0.1-0.3,0.1H43c-0.1,0-0.2,0-0.3-0.1c-0.1-0.1-0.1-0.2-0.1-0.3v-5.5c0-0.8-0.3-1.2-1-1.2
	c-0.6,0-1.3,0.2-1.8,0.5v6.2c0,0.1,0,0.2-0.1,0.3c-0.1,0.1-0.2,0.1-0.3,0.1h-1.6c-0.1,0-0.2,0-0.3-0.1c-0.1-0.1-0.1-0.2-0.1-0.3
	v-5.5c0-0.8-0.3-1.2-1-1.2c-0.6,0-1.3,0.2-1.9,0.5v6.2c0,0.1,0,0.2-0.1,0.3c-0.1,0.1-0.2,0.1-0.3,0.1h-1.7c-0.1,0-0.2,0-0.3-0.1
	c-0.1-0.1-0.1-0.2-0.1-0.3v-7.9c0-0.1,0-0.2,0.1-0.3c0.1-0.1,0.2-0.1,0.3-0.1h1.2c0.2,0,0.4,0.1,0.5,0.4L34.1,20.8z"/>
<path id="path24" inkscape:connector-curvature="0" class="st1" d="M50.7,21.5c-1.1,0-1.7,0.7-1.9,2c0.5,0.1,1,0.1,1.5,0.1
	c0.4,0,0.9-0.1,1.3-0.3c0.3-0.2,0.4-0.5,0.4-0.8C51.9,21.8,51.5,21.4,50.7,21.5 M50.4,25.1c-0.6,0-1.1-0.1-1.7-0.2
	c0,0.6,0.3,1.2,0.7,1.6c0.5,0.4,1.1,0.5,1.8,0.5c0.3,0,0.6,0,0.9-0.1c0.4-0.1,0.8-0.1,1.2-0.3h0.1h0.1c0.2,0,0.3,0.1,0.3,0.4v0.8
	c0,0.1,0,0.3-0.1,0.4c-0.1,0.1-0.2,0.2-0.3,0.2c-0.8,0.3-1.7,0.5-2.6,0.5c-1.2,0.1-2.4-0.3-3.2-1.2c-0.8-0.9-1.2-2.1-1.1-3.3
	c-0.1-1.3,0.3-2.5,1.2-3.5c0.8-0.9,2-1.3,3.2-1.3c0.9-0.1,1.8,0.2,2.5,0.8c0.6,0.5,0.9,1.3,0.9,2c0,0.8-0.3,1.5-1,1.9
	C52.3,25,51.4,25.2,50.4,25.1"/>
</svg>
