<?xml version="1.0" encoding="utf-8"?>
<!-- Generator: Adobe Illustrator 24.0.1, SVG Export Plug-In . SVG Version: 6.00 Build 0)  -->
<svg version="1.1"
	 id="Layer_2_1_" inkscape:version="0.92.4 (5da689c313, 2019-01-14)" sodipodi:docname="apple_tv_plus.svg" xmlns:cc="http://creativecommons.org/ns#" xmlns:dc="http://purl.org/dc/elements/1.1/" xmlns:inkscape="http://www.inkscape.org/namespaces/inkscape" xmlns:rdf="http://www.w3.org/1999/02/22-rdf-syntax-ns#" xmlns:sodipodi="http://sodipodi.sourceforge.net/DTD/sodipodi-0.dtd" xmlns:svg="http://www.w3.org/2000/svg"
	 xmlns="http://www.w3.org/2000/svg" xmlns:xlink="http://www.w3.org/1999/xlink" x="0px" y="0px" viewBox="0 0 110 55"
	 style="enable-background:new 0 0 110 55;" xml:space="preserve">
<style type="text/css">
	.st0{fill:#333333;}
	.st1{fill:#FFFFFF;}
</style>
<sodipodi:namedview  bordercolor="#666666" borderopacity="1" gridtolerance="10" guidetolerance="10" id="namedview24" inkscape:current-layer="Layer_2" inkscape:cx="55" inkscape:cy="27.5" inkscape:pageopacity="0" inkscape:pageshadow="2" inkscape:window-height="480" inkscape:window-maximized="0" inkscape:window-width="640" inkscape:window-x="0" inkscape:window-y="0" inkscape:zoom="2.6090909" objecttolerance="10" pagecolor="#ffffff" showgrid="false">
	</sodipodi:namedview>
<title  id="title6">AppleTVplus</title>
<rect id="rect8" class="st0" width="110" height="55"/>
<g id="Light">
	<path id="path10" inkscape:connector-curvature="0" class="st1" d="M31.6,18.3c1-1.2,1.5-2.8,1.4-4.4c-1.5,0.2-3,0.9-4,2.1
		c-1,1.1-1.5,2.6-1.4,4.2C29.1,20.2,30.7,19.5,31.6,18.3"/>
	<path id="path12" inkscape:connector-curvature="0" class="st1" d="M31.6,18.2c1-1.2,1.5-2.7,1.4-4.3c-1.5,0.2-3,0.9-4,2.1
		c-1,1.1-1.5,2.6-1.4,4.2C29.2,20.2,30.7,19.4,31.6,18.2"/>
	<path id="path14" inkscape:connector-curvature="0" class="st1" d="M32.9,20.4c-2.2-0.1-4.1,1.3-5.1,1.3c-1,0-2.7-1.2-4.5-1.2
		c-2.3,0.1-4.5,1.4-5.6,3.4c-2.4,4.1-0.6,10.3,1.7,13.6c1.1,1.7,2.5,3.4,4.3,3.4s2.4-1.1,4.4-1.1s2.7,1.1,4.5,1.1s3-1.7,4.2-3.3
		c0.8-1.2,1.4-2.5,1.9-3.8c-2.2-1-3.6-3.1-3.6-5.5c0-2.1,1.1-4.1,3-5.2C36.9,21.4,35,20.4,32.9,20.4"/>
	<path id="path16" inkscape:connector-curvature="0" class="st1" d="M50.5,18.2v4.3h3.4v3h-3.4v10c0,1.6,0.7,2.3,2.2,2.3
		c0.4,0,0.8,0,1.2-0.1v2.9c-0.7,0.1-1.4,0.2-2.1,0.2c-3.7,0-5.2-1.4-5.2-4.9V25.5h-2.6v-3h2.6v-4.3L50.5,18.2z"/>
	<path id="path18" inkscape:connector-curvature="0" class="st1" d="M66.5,40.7h-4l-6.6-18.3h4L64.5,37l0,0l4.6-14.6H73L66.5,40.7z"
		/>
	<polygon id="polygon20" class="st1" points="86.2,22.5 82.7,22.5 82.7,29.8 75.5,29.8 75.5,33.2 82.7,33.2 82.7,40.5 86.2,40.5 
		86.2,33.2 93.4,33.2 93.4,29.8 86.2,29.8 	"/>
</g>
</svg>
