<?xml version="1.0" encoding="utf-8"?>
<!-- Generator: Adobe Illustrator 24.0.1, SVG Export Plug-In . SVG Version: 6.00 Build 0)  -->
<svg version="1.1"
	 id="Layer_2_1_" inkscape:version="0.92.3 (2405546, 2018-03-11)" sodipodi:docname="hulu_plus.svg" xmlns:cc="http://creativecommons.org/ns#" xmlns:dc="http://purl.org/dc/elements/1.1/" xmlns:inkscape="http://www.inkscape.org/namespaces/inkscape" xmlns:rdf="http://www.w3.org/1999/02/22-rdf-syntax-ns#" xmlns:sodipodi="http://sodipodi.sourceforge.net/DTD/sodipodi-0.dtd" xmlns:svg="http://www.w3.org/2000/svg"
	 xmlns="http://www.w3.org/2000/svg" xmlns:xlink="http://www.w3.org/1999/xlink" x="0px" y="0px" viewBox="0 0 110 55"
	 style="enable-background:new 0 0 110 55;" xml:space="preserve">
<style type="text/css">
	.st0{fill:#989898;}
	.st1{fill:#FFFFFF;}
	.st2{fill-rule:evenodd;clip-rule:evenodd;fill:#FFFFFF;}
</style>
<sodipodi:namedview  bordercolor="#666666" borderopacity="1" gridtolerance="10" guidetolerance="10" id="namedview19" inkscape:current-layer="Layer_2" inkscape:cx="56" inkscape:cy="26.5" inkscape:pageopacity="0" inkscape:pageshadow="2" inkscape:window-height="480" inkscape:window-maximized="0" inkscape:window-width="640" inkscape:window-x="0" inkscape:window-y="0" inkscape:zoom="2.4912281" objecttolerance="10" pagecolor="#ffffff" showgrid="false">
	</sodipodi:namedview>
<title  id="title6">Artboard 7</title>
<rect id="rect8" class="st0" width="110" height="55"/>
<rect id="rect10" x="61.2" y="14.1" class="st1" width="4.5" height="23.9"/>
<path id="path12" inkscape:connector-curvature="0" class="st2" d="M25.5,14.1H30V22c0.4-0.2,0.9-0.3,1.5-0.3h3.5
	c2.7,0,4.9,2.2,4.9,4.9v11.3h-4.5v-9.6c0-0.8-0.7-1.5-1.5-1.5h-2.3c-0.8,0-1.5,0.7-1.5,1.5c0,0,0,0,0,0v9.6h-4.5V14.1z"/>
<path id="path14" inkscape:connector-curvature="0" class="st2" d="M57.5,21.6V33c0,2.7-2.2,4.9-4.9,4.9h-4.4
	c-2.7,0-4.9-2.2-4.9-4.9V21.6h4.5v9.8c0,0.8,0.7,1.5,1.5,1.5c0,0,0,0,0,0h2.2c0.8,0,1.5-0.7,1.5-1.5c0,0,0,0,0,0v-9.8H57.5z"/>
<path id="path16" inkscape:connector-curvature="0" class="st2" d="M83.6,21.6V33c0,2.7-2.2,4.9-4.9,4.9h-4.4
	c-2.7,0-4.9-2.2-4.9-4.9V21.6h4.5v9.8c0,0.8,0.7,1.5,1.5,1.5c0,0,0,0,0,0h2.2c0.8,0,1.5-0.7,1.5-1.5v-9.9L83.6,21.6z"/>
</svg>
