<?xml version="1.0" encoding="utf-8"?>
<!-- Generator: Adobe Illustrator 24.0.1, SVG Export Plug-In . SVG Version: 6.00 Build 0)  -->
<svg version="1.1" id="Layer_1" xmlns="http://www.w3.org/2000/svg" xmlns:xlink="http://www.w3.org/1999/xlink" x="0px" y="0px"
	 viewBox="0 0 780 1040" style="enable-background:new 0 0 780 1040;" xml:space="preserve">
<style type="text/css">
	.st0{fill:#FFFFFF;}
	.st1{fill:#DC6C33;}
	.st2{fill:#FAEDBD;}
	.st3{fill:#F4CD1E;}
	.st4{enable-background:new    ;}
	.st5{fill:#B10000;}
</style>
<rect class="st0" width="780" height="1040"/>
<g>
	<path class="st1" d="M280,217.4h245.1c17.7,0,32,14.3,32,32v245.1c0,17.7-14.3,32-32,32H280c-17.7,0-32-14.3-32-32V249.3
		C248,231.7,262.3,217.4,280,217.4z"/>
	<g>
		<circle class="st2" cx="288" cy="257.3" r="13.3"/>
		<circle class="st2" cx="517.1" cy="257.3" r="13.3"/>
		<circle class="st2" cx="288" cy="486.4" r="13.3"/>
		<circle class="st2" cx="517.1" cy="486.4" r="13.3"/>
	</g>
	<path id="SVGCleanerId_0" class="st2" d="M371.6,414.5h52.3c5.9,0,10.7-4.8,10.7-10.7V387c0-2.8,1.1-5.5,3.1-7.5l4.4-4.4
		c2-2,4.7-3.1,7.5-3.1h17.8c2.8,0,5.5-1.1,7.5-3.1l20.4-20.4c2-2,3.1-4.7,3.1-7.5v-44.5c0-2.8-1.1-5.5-3.1-7.5l-20.4-20.4
		c-2-2-4.7-3.1-7.5-3.1H343c-2.8,0-5.5,1.1-7.5,3.1L315.1,289c-2,2-3.1,4.7-3.1,7.5v32.9c0,5.9,4.8,10.7,10.7,10.7H344
		c5.9,0,10.7-4.8,10.7-10.7v-11.6c0-2.8,1.1-5.5,3.1-7.5l4.4-4.4c2-2,4.7-3.1,7.5-3.1h65.8c2.8,0,5.5,1.1,7.5,3.1l4.4,4.4
		c2,2,3.1,4.7,3.1,7.5v16.9c0,5.9-4.8,10.7-10.7,10.7h-27.6c-2.8,0-5.5,1.1-7.5,3.1l-31.1,31.1c-2,2-3.1,4.7-3.1,7.5v27.6"/>
	<path id="SVGCleanerId_1" class="st2" d="M381.2,441.2h42.6c5.9,0,10.7,4.8,10.7,10.7v21.3c0,5.9-4.8,10.7-10.7,10.7h-42.6
		c-5.9,0-10.7-4.8-10.7-10.7v-21.3C370.6,445.9,375.3,441.2,381.2,441.2z"/>
	<path class="st3" d="M280,217.4h245.1c17.7,0,32,14.3,32,32v245.1c0,17.7-14.3,32-32,32H280c-17.7,0-32-14.3-32-32V249.3
		C248,231.7,262.3,217.4,280,217.4z"/>
	<g>
		<circle class="st2" cx="288" cy="257.3" r="13.3"/>
		<circle class="st2" cx="517.1" cy="257.3" r="13.3"/>
		<circle class="st2" cx="288" cy="486.4" r="13.3"/>
		<circle class="st2" cx="517.1" cy="486.4" r="13.3"/>
	</g>
	<g>
		<path id="SVGCleanerId_0_1_" class="st2" d="M371.6,414.5h52.3c5.9,0,10.7-4.8,10.7-10.7V387c0-2.8,1.1-5.5,3.1-7.5l4.4-4.4
			c2-2,4.7-3.1,7.5-3.1h17.8c2.8,0,5.5-1.1,7.5-3.1l20.4-20.4c2-2,3.1-4.7,3.1-7.5v-44.5c0-2.8-1.1-5.5-3.1-7.5l-20.4-20.4
			c-2-2-4.7-3.1-7.5-3.1H343c-2.8,0-5.5,1.1-7.5,3.1L315.1,289c-2,2-3.1,4.7-3.1,7.5v32.9c0,5.9,4.8,10.7,10.7,10.7H344
			c5.9,0,10.7-4.8,10.7-10.7v-11.6c0-2.8,1.1-5.5,3.1-7.5l4.4-4.4c2-2,4.7-3.1,7.5-3.1h65.8c2.8,0,5.5,1.1,7.5,3.1l4.4,4.4
			c2,2,3.1,4.7,3.1,7.5v16.9c0,5.9-4.8,10.7-10.7,10.7h-27.6c-2.8,0-5.5,1.1-7.5,3.1l-31.1,31.1c-2,2-3.1,4.7-3.1,7.5v27.6"/>
	</g>
	<g>
		<path id="SVGCleanerId_1_1_" class="st2" d="M381.2,441.2h42.6c5.9,0,10.7,4.8,10.7,10.7v21.3c0,5.9-4.8,10.7-10.7,10.7h-42.6
			c-5.9,0-10.7-4.8-10.7-10.7v-21.3C370.6,445.9,375.3,441.2,381.2,441.2z"/>
	</g>
</g>
<g class="st4">
	<path class="st5" d="M236,669.8V610h8.1l31.4,46.9V610h7.6v59.8H275l-31.4-47v47H236z"/>
	<path class="st5" d="M292.7,648.2c0-8,2.2-14,6.7-17.8c3.7-3.2,8.3-4.8,13.6-4.8c6,0,10.8,1.9,14.6,5.8c3.8,3.9,5.7,9.3,5.7,16.2
		c0,5.6-0.8,10-2.5,13.1c-1.7,3.2-4.1,5.7-7.3,7.4c-3.2,1.8-6.7,2.6-10.5,2.6c-6.1,0-11-1.9-14.7-5.8
		C294.6,661.1,292.7,655.5,292.7,648.2z M300.2,648.2c0,5.5,1.2,9.7,3.6,12.5s5.5,4.1,9.1,4.1s6.7-1.4,9.1-4.2s3.6-7,3.6-12.7
		c0-5.4-1.2-9.4-3.6-12.2s-5.5-4.1-9.1-4.1c-3.7,0-6.7,1.4-9.1,4.1C301.5,638.5,300.2,642.6,300.2,648.2z"/>
	<path class="st5" d="M366,669.8V610h22.5c4,0,7,0.2,9.1,0.6c2.9,0.5,5.4,1.4,7.4,2.8c2,1.4,3.6,3.3,4.8,5.8
		c1.2,2.5,1.8,5.2,1.8,8.2c0,5.1-1.6,9.4-4.9,12.9c-3.2,3.5-9.1,5.3-17.5,5.3h-15.3v24.3L366,669.8L366,669.8z M373.9,638.5h15.4
		c5.1,0,8.7-1,10.9-2.9c2.1-1.9,3.2-4.6,3.2-8c0-2.5-0.6-4.6-1.9-6.4c-1.3-1.8-2.9-3-5-3.5c-1.3-0.4-3.8-0.5-7.4-0.5h-15.3
		L373.9,638.5L373.9,638.5z"/>
	<path class="st5" d="M418,648.2c0-8,2.2-14,6.7-17.8c3.7-3.2,8.3-4.8,13.6-4.8c6,0,10.8,1.9,14.6,5.8s5.7,9.3,5.7,16.2
		c0,5.6-0.8,10-2.5,13.1c-1.7,3.2-4.1,5.7-7.3,7.4c-3.2,1.8-6.7,2.6-10.5,2.6c-6.1,0-11-1.9-14.7-5.8
		C419.9,661.1,418,655.5,418,648.2z M425.5,648.2c0,5.5,1.2,9.7,3.6,12.5s5.5,4.1,9.1,4.1s6.7-1.4,9.1-4.2s3.6-7,3.6-12.7
		c0-5.4-1.2-9.4-3.6-12.2s-5.5-4.1-9.1-4.1c-3.7,0-6.7,1.4-9.1,4.1C426.7,638.5,425.5,642.6,425.5,648.2z"/>
	<path class="st5" d="M464.2,656.9l7.3-1.1c0.4,2.9,1.5,5.1,3.4,6.7s4.5,2.3,7.8,2.3c3.4,0,5.9-0.7,7.5-2.1c1.6-1.4,2.4-3,2.4-4.8
		c0-1.7-0.7-3-2.2-3.9c-1-0.7-3.5-1.5-7.5-2.5c-5.4-1.4-9.1-2.5-11.2-3.5s-3.7-2.4-4.7-4.1c-1.1-1.8-1.6-3.7-1.6-5.8
		c0-1.9,0.4-3.7,1.3-5.4c0.9-1.6,2.1-3,3.6-4.1c1.1-0.8,2.7-1.6,4.7-2.1c2-0.6,4.1-0.9,6.3-0.9c3.4,0,6.4,0.5,8.9,1.5
		c2.6,1,4.5,2.3,5.7,4s2.1,3.9,2.5,6.7l-7.2,1c-0.3-2.2-1.3-4-2.8-5.2c-1.6-1.2-3.8-1.9-6.6-1.9c-3.4,0-5.8,0.6-7.2,1.7
		s-2.2,2.4-2.2,3.9c0,1,0.3,1.8,0.9,2.6s1.5,1.4,2.8,2c0.7,0.3,2.9,0.9,6.5,1.9c5.2,1.4,8.8,2.5,10.9,3.4s3.7,2.2,4.8,3.9
		c1.2,1.7,1.8,3.8,1.8,6.3c0,2.4-0.7,4.7-2.1,6.9s-3.5,3.8-6.2,5s-5.7,1.8-9.1,1.8c-5.6,0-9.9-1.2-12.9-3.5
		C466.9,665,465,661.5,464.2,656.9z"/>
	<path class="st5" d="M524.9,663.3l1.1,6.5c-2.1,0.4-3.9,0.7-5.5,0.7c-2.7,0-4.7-0.4-6.2-1.3c-1.5-0.8-2.5-2-3.1-3.3
		c-0.6-1.4-0.9-4.3-0.9-8.7v-24.9h-5.4v-5.7h5.4v-10.7l7.3-4.4v15.1h7.4v5.7h-7.4v25.3c0,2.1,0.1,3.4,0.4,4c0.3,0.6,0.7,1.1,1.3,1.4
		c0.6,0.4,1.4,0.5,2.5,0.5C522.5,663.5,523.6,663.4,524.9,663.3z"/>
	<path class="st5" d="M561.7,655.9l7.6,0.9c-1.2,4.4-3.4,7.9-6.6,10.3c-3.2,2.4-7.4,3.7-12.4,3.7c-6.3,0-11.4-1.9-15.1-5.8
		s-5.6-9.4-5.6-16.4c0-7.3,1.9-12.9,5.6-17c3.7-4,8.6-6,14.6-6c5.8,0,10.5,2,14.2,5.9s5.5,9.5,5.5,16.6c0,0.4,0,1.1,0,2h-32.3
		c0.3,4.8,1.6,8.4,4,10.9s5.4,3.8,9,3.8c2.7,0,5-0.7,6.9-2.1C559.1,661.2,560.6,659,561.7,655.9z M537.6,644h24.2
		c-0.3-3.6-1.3-6.4-2.8-8.2c-2.3-2.8-5.4-4.2-9.1-4.2c-3.4,0-6.2,1.1-8.5,3.4C539.1,637.2,537.9,640.2,537.6,644z"/>
	<path class="st5" d="M578.4,669.8v-43.3h6.6v6.6c1.7-3.1,3.2-5.1,4.7-6.1c1.4-1,3-1.5,4.7-1.5c2.5,0,5,0.8,7.5,2.4l-2.5,6.8
		c-1.8-1.1-3.6-1.6-5.4-1.6c-1.6,0-3,0.5-4.3,1.4c-1.3,1-2.2,2.3-2.7,4c-0.8,2.6-1.2,5.5-1.2,8.6v22.7L578.4,669.8L578.4,669.8z"/>
</g>
</svg>
