<?xml version="1.0" encoding="iso-8859-1"?>
<!-- Generator: Adobe Illustrator 19.0.0, SVG Export Plug-In . SVG Version: 6.00 Build 0)  -->
<svg version="1.1" id="Layer_1" xmlns="http://www.w3.org/2000/svg" xmlns:xlink="http://www.w3.org/1999/xlink" x="0px" y="0px"
	 viewBox="0 0 512 512" style="enable-background:new 0 0 512 512;" xml:space="preserve">
<circle style="fill:#E7ECFD;" cx="189.217" cy="97.391" r="16.696"/>
<path style="fill:#F5DC48;" d="M256,372.87c-64.445,0-116.87-52.424-116.87-116.87S191.555,139.13,256,139.13
	S372.87,191.555,372.87,256S320.445,372.87,256,372.87z"/>
<path style="fill:#EDBA43;" d="M372.87,256c0-64.445-52.424-116.87-116.87-116.87V372.87C320.445,372.87,372.87,320.445,372.87,256z
	"/>
<path style="fill:#895D5C;" d="M289.391,239.304h-16.696v-16.696c0-9.217-7.479-16.696-16.696-16.696s-16.696,7.479-16.696,16.696
	v16.696h-16.696c-9.217,0-16.696,7.479-16.696,16.696s7.479,16.696,16.696,16.696h16.696v16.696c0,9.217,7.479,16.696,16.696,16.696
	s16.696-7.479,16.696-16.696v-16.696h16.696c9.217,0,16.696-7.479,16.696-16.696S298.608,239.304,289.391,239.304z"/>
<path style="fill:#864E4E;" d="M272.696,289.391v-16.696h16.696c9.217,0,16.696-7.479,16.696-16.696s-7.479-16.696-16.696-16.696
	h-16.696v-16.696c0-9.217-7.479-16.696-16.696-16.696v100.174C265.217,306.087,272.696,298.608,272.696,289.391z"/>
<path style="fill:#BA3049;" d="M256,0l-16.696,20.181v137.74L256,172.522c22.909,0,43.824,9.393,58.955,24.524l22.078,1.53
	l99.287-99.287l0.51-24.119C389.545,27.868,325.3,0,256,0z"/>
<path style="fill:#5D5F66;" d="M75.112,75.112l2.84,26.449l97.015,97.015l22.056-1.553c15.145-15.146,36.036-24.501,58.977-24.501V0
	C188.193,0,123.293,26.93,75.112,75.112z"/>
<circle style="fill:#E7ECFD;" cx="189.217" cy="97.391" r="16.696"/>
<path style="fill:#D03351;" d="M75.112,75.112C26.96,123.262,0,188.154,0,256l16.006,16.696h142.602L172.522,256
	c0-22.456,9.005-43.481,24.5-58.978L75.112,75.112z"/>
<path style="fill:#5D5F66;" d="M172.522,256H0c0,66.714,26.161,131.938,75.112,180.888H98.72l98.302-98.302v-23.609
	C181.877,299.832,172.522,278.941,172.522,256z"/>
<path style="fill:#D03351;" d="M256,339.478c-22.475,0-43.497-9.02-58.978-24.5L75.112,436.888C123.579,485.357,188.612,512,256,512
	l16.696-19.48V356.188L256,339.478z"/>
<path style="fill:#5D5F66;" d="M436.883,413.273l-98.267-98.266l-23.638-0.029c-15.146,15.145-36.037,24.5-58.978,24.5V512
	c66.714,0,131.938-26.161,180.888-75.112L436.883,413.273z"/>
<path style="fill:#BA3049;" d="M497.391,239.304h-146.78L339.478,256c0,22.796-9.243,43.719-24.5,58.978l121.911,121.911
	C485.04,388.738,512,323.846,512,256L497.391,239.304z"/>
<path style="fill:#55575C;" d="M436.831,75.169L314.955,197.045c15.115,15.113,24.524,36.018,24.524,58.955H512
	C512,186.014,483.485,121.833,436.831,75.169z"/>
<g>
</g>
<g>
</g>
<g>
</g>
<g>
</g>
<g>
</g>
<g>
</g>
<g>
</g>
<g>
</g>
<g>
</g>
<g>
</g>
<g>
</g>
<g>
</g>
<g>
</g>
<g>
</g>
<g>
</g>
</svg>
