<?xml version="1.0" encoding="utf-8"?>
<!-- Generator: Adobe Illustrator 24.0.1, SVG Export Plug-In . SVG Version: 6.00 Build 0)  -->
<svg version="1.1"
	 id="Layer_2_1_" inkscape:version="0.92.4 (5da689c313, 2019-01-14)" sodipodi:docname="DisneyPlus.svg" xmlns:cc="http://creativecommons.org/ns#" xmlns:dc="http://purl.org/dc/elements/1.1/" xmlns:inkscape="http://www.inkscape.org/namespaces/inkscape" xmlns:rdf="http://www.w3.org/1999/02/22-rdf-syntax-ns#" xmlns:sodipodi="http://sodipodi.sourceforge.net/DTD/sodipodi-0.dtd" xmlns:svg="http://www.w3.org/2000/svg"
	 xmlns="http://www.w3.org/2000/svg" xmlns:xlink="http://www.w3.org/1999/xlink" x="0px" y="0px" viewBox="0 0 110 55"
	 style="enable-background:new 0 0 110 55;" xml:space="preserve">
<style type="text/css">
	.st0{fill:url(#rect22_1_);}
	.st1{clip-path:url(#SVGID_2_);}
	.st2{fill:#FFFFFF;}
	.st3{clip-path:url(#SVGID_4_);}
	.st4{opacity:0;}
	.st5{clip-path:url(#SVGID_6_);}
	.st6{clip-path:url(#SVGID_8_);}
</style>
<sodipodi:namedview  bordercolor="#666666" borderopacity="1" gridtolerance="10" guidetolerance="10" id="namedview45" inkscape:current-layer="Layer_2" inkscape:cx="55" inkscape:cy="27.5" inkscape:pageopacity="0" inkscape:pageshadow="2" inkscape:window-height="480" inkscape:window-maximized="0" inkscape:window-width="640" inkscape:window-x="0" inkscape:window-y="0" inkscape:zoom="2.6090909" objecttolerance="10" pagecolor="#ffffff" showgrid="false">
	</sodipodi:namedview>
<title  id="title20">DisneyPlus</title>
<linearGradient id="rect22_1_" gradientUnits="userSpaceOnUse" x1="55" y1="56" x2="55" y2="1" gradientTransform="matrix(1 0 0 -1 0 56)">
	<stop  offset="0" style="stop-color:#101010"/>
	<stop  offset="1" style="stop-color:#3E3E3E"/>
</linearGradient>
<rect id="rect22" class="st0" width="110" height="55"/>
<g id="g42">
	<g>
		<defs>
			<path id="SVGID_1_" d="M88,32.8h-4.2c-0.1-1.4-0.3-2.8-0.5-4.2c0-0.1-0.2-0.2-0.3-0.3h-1c-0.1,0-0.2,0-0.2,0.1
				c-0.1,0.1-0.1,0.2-0.1,0.2c0.3,1.4,0.5,2.7,0.5,4.1h-4c-0.2,0-0.3,0.2-0.3,0.3V34c0,0.2,0.2,0.3,0.3,0.3h4.1v0.6
				c0,1.1-0.1,2.3-0.2,3.4c0,0.1,0,0.2,0.1,0.2c0.1,0.1,0.1,0.1,0.2,0.1h0.9c0.2,0,0.3-0.1,0.3-0.3c0.1-1.1,0.2-2.3,0.2-3.5
				c0-0.2,0-0.4,0-0.6H88c0.2,0,0.3-0.1,0.3-0.3v-0.9C88.3,33,88.2,32.8,88,32.8 M74.9,33c0,0-0.1-0.7-0.8,0.1c-1,1-1.8,2.2-2.5,3.5
				c0.7-0.1,1.4-0.4,2-0.8C74.4,35,74.9,34,74.9,33 M75.3,35.7c-0.6,1-2.3,3.3-4.6,2.7c-0.9,2-1.4,4.2-1.7,6.4c0,0-0.1,0.5-0.5,0.3
				c-0.7-0.4-1.2-1.1-1.3-1.9c-0.2-1.3,0.4-3.6,1.7-6.1c-0.4-0.8-0.6-1.7-0.4-2.5c0.4-1.6,1.2-3,2.5-4.1c0,0,0.3-0.2,0.4-0.1
				s0.1,0.8,0,1.1s-1.1,2-1.1,2c-0.3,0.6-0.5,1.3-0.4,2c1.2-1.7,3.8-5.3,5.4-4.1c0.6,0.5,0.9,1.3,0.8,2.1c0,0.8-0.2,1.6-0.6,2.3
				 M60.9,37c-0.2,0.7-0.9,1.1-1.6,0.9c0,0-0.1,0-0.1,0c-0.8-0.4-2.1-3-2.1-3s-0.5-1-0.6-1s-0.1-0.2-0.2,0.9s0,3.1-0.4,3.5
				c-0.3,0.3-0.8,0.3-1.1-0.1c0,0-0.1-0.1-0.1-0.1c-0.3-0.9-0.4-1.9-0.2-2.8c0-1.3,0.4-2.6,1-3.8c0.2-0.3,0.6-0.3,0.8-0.2
				c0.1,0,0.1,0.1,0.2,0.2c0.7,0.7,1.2,1.4,1.7,2.2l0.2,0.3c0.3,0.5,0.6,1.1,1,1.6c0,0,0.1,0.1,0.2,0s0.1-0.5,0.1-0.5
				c-0.2-1.6-0.6-3.1-1.1-4.6c-0.1-0.2-0.1-0.5,0-0.7c0.1-0.3,0.4-0.2,0.4-0.2c1,0.6,1.7,1.7,2,2.8C61.4,33.8,61.4,35.4,60.9,37
				 M68.3,32.3c-1.1,0.2-2.3,0.3-3.4,0.3l-0.3,1c0.7-0.1,1.4-0.1,2.2,0c0,0,0.3,0,0.3,0.3c0,0.2,0,0.5,0,0.7c0,0,0,0.2-0.3,0.3
				C66.4,35,64,35,64,35l-0.4,1.3c0,0-0.1,0.3,0.2,0.2c1-0.2,2-0.4,3-0.5c0.4,0.1,0.7,0.5,0.6,1c-0.1,0.5-2.6,2-4.1,1.9
				c-0.6-0.1-1.2-0.4-1.5-1c-0.6-1,0.2-2.9,0.2-2.9s-0.4-0.9-0.1-1.2c0.2-0.1,0.4-0.2,0.7-0.2l0.6-1.2c-0.4,0-0.8-0.1-1.1-0.4
				c-0.4-0.5-0.4-0.7-0.1-0.8c1.7-0.4,3.4-0.6,5.2-0.6c0,0,0.7-0.1,1.3,1.1C68.5,31.7,68.8,32.2,68.3,32.3 M42.7,33.4
				c0,0.4,0,0.8-0.1,1.3c-0.1,0.3-0.1,0.6-0.2,0.8c-0.1,0.3-0.3,0.6-0.4,0.8c-0.3,0.5-0.8,1-1.2,1.5c-1.5,1.1-3.3,1.8-5.2,2
				c-1.3,0.2-2.6,0.1-3.9-0.1l-1.1-0.2c0,0,0,0.3,0,0.4c0,0.1-0.1,0.3-0.1,0.4c-0.1,0.2-0.3,0.3-0.5,0.3c-0.3,0.1-0.5,0.1-0.8,0
				c-0.4-0.2-0.6-0.6-0.6-1c-0.1-0.3-0.1-0.9-0.1-0.9L28,38.4c-0.8-0.4-1.5-0.8-2.2-1.3c-0.2-0.1-0.9-0.8-1.1-0.9
				c-0.5-0.4-0.9-0.9-1.2-1.5c-0.3-0.4-0.3-0.9-0.1-1.3c0.4-0.7,1.1-1.2,1.9-1.4c0.8-0.3,1.7-0.6,2.6-0.8c0.3,0,0.5-0.1,0.8-0.1l0,0
				c0,0,0-0.7,0-0.9s0.2-1.8,0.2-2.1c0.1-0.3,0.2-0.7,0.3-1c0.1-0.1,0.3-0.1,0.4,0c0.7,0.4,0.9,1.9,1,2.7c0,0.5,0,1.2,0,1.2
				s0.8,0,1.3,0c0.5,0,1,0.1,1.5,0.2c0.9,0.1,1.8,0.4,2.6,0.7c0.6,0.3,1.1,0.7,1.3,1.3c0.2,0.4,0.1,0.9-0.1,1.3
				c-0.3,0.5-0.8,0.8-1.4,0.9c-0.3,0-0.7-0.1-1-0.2c-0.1-0.1-0.1-0.1,0-0.2c0,0,0,0,0,0l0.5-0.3l0.2-0.2c0.1-0.1,0.3-0.3,0.3-0.4
				c0-0.2-0.3-0.3-0.5-0.4c-1.3-0.4-2.6-0.7-3.9-0.8c-0.4,0-0.9,0-0.9,0l0.1,5.2l0.8,0.1c0.2,0,1,0.1,1.3,0.1
				c1.8,0.1,3.5-0.2,5.2-0.8c0.7-0.3,1.3-0.7,1.8-1.2c0.6-0.7,1-1.7,0.9-2.7c-0.2-1.2-0.7-2.4-1.5-3.3c-1.9-2.2-4.3-3.8-7-4.9
				c-2.5-1-5.1-1.6-7.8-1.7c-1,0-2,0-3,0.2l-0.3,0.1c-0.1,0-0.2,0.1-0.2,0.1l0,0h0.1c0.2,0,0.4,0.1,0.6,0.1c0.2,0,0.3,0.1,0.4,0.2
				c0.1,0.1,0.1,0.2,0,0.3c-0.2,0.2-0.8,0.2-1.1,0.1c-0.3,0-0.7-0.1-0.8-0.4c0-0.3,0-0.6,0.2-0.9c0.3-0.5,0.8-0.9,1.4-1
				c1-0.3,2-0.4,3-0.5c2,0,4,0.2,5.9,0.9c1.3,0.4,2.5,0.9,3.7,1.4c0.9,0.4,1.8,0.9,2.7,1.5c0.2,0.2,1.4,1.1,1.6,1.2
				c0.4,0.3,1,0.8,1.3,1.2c0.8,0.8,1.6,1.8,2.1,2.8c0.1,0.2,0.2,0.4,0.3,0.7c0,0.1,0.3,0.6,0.3,0.7c0,0.1,0.1,0.2,0.1,0.4
				C42.7,33,42.7,33.2,42.7,33.4 M28.5,32.9c0,0-0.8,0-1.3,0.1c-0.9,0.1-1.8,0.3-2.7,0.5c-0.2,0.1-0.7,0.3-0.7,0.5
				c0,0.2,0.1,0.4,0.3,0.6s0.6,0.6,0.8,0.7c0.9,0.7,1.8,1.2,2.8,1.7l0.9,0.3c0,0,0-1.5,0-3L28.5,32.9 M44.4,30.8h0.1
				c0.3,0.1,0.6,0.5,0.6,0.8c0.2,1.1,0.3,2.3,0.3,3.4l0.1,1.6c0.1,0.5,0.1,1,0,1.5c0,0.2-0.1,0.3-0.3,0.4c-0.2,0.1-0.5,0.1-0.8,0.1
				c-0.5-0.1-0.7-0.4-0.8-0.9c-0.1-1.5-0.1-3.1,0-4.6c0.1-0.6,0.2-1.2,0.3-1.8C44.1,31.1,44.2,30.8,44.4,30.8 M43.5,29.3
				c-0.1,0.1-0.1,0.3-0.2,0.4c0,0.1-0.1,0.1-0.2,0.2c-0.1,0.1-0.3,0.1-0.5,0c-0.2-0.2-0.4-0.5-0.4-0.8c0-0.1,0-0.3,0-0.4
				c-0.1-0.2-0.2-0.4-0.3-0.6c-0.1-0.3-0.2-0.5-0.2-0.8c0-0.8,0.3-1.5,0.9-2c0.6-0.6,1.2-1,2-1.3c0.8-0.3,1.6-0.4,2.4-0.2
				c0.3,0.1,0.6,0.3,0.8,0.5c0,0,0.1,0.1,0.1,0.1c0.1,0,0.1,0,0.2,0c0.3,0.1,0.5,0.2,0.8,0.4c0.3,0.2,0.5,0.5,0.5,0.8
				c0.1,0.7-0.2,1.4-0.7,1.9c-0.7,0.8-1.6,1.4-2.6,1.8c-0.5,0.2-1.1,0.3-1.7,0.3c-0.2,0-0.3,0-0.5-0.1
				C43.8,29.4,43.7,29.4,43.5,29.3C43.5,29.3,43.5,29.3,43.5,29.3 M45.1,28.1c0.7,0,1.3-0.2,1.9-0.6c0.6-0.3,1.4-0.9,1.3-1.6
				c0-0.2-0.2-0.4-0.4-0.5c-0.2-0.1-0.5-0.1-0.7,0c-0.2,0.1-0.4,0.1-0.6,0.2c-0.8,0.5-1.5,1.1-2.1,1.8c-0.1,0.1-0.2,0.3-0.3,0.4
				c0,0-0.1,0.1-0.1,0.1C44.5,28.1,44.8,28.1,45.1,28.1 M42.8,27.4c0,0,0.2-0.3,0.4-0.6c0.4-0.5,0.9-1,1.4-1.5l0.3-0.3
				c0,0-0.3,0-0.4,0c-0.4,0.1-0.8,0.3-1.1,0.6c-0.4,0.4-0.9,0.9-0.7,1.4L42.8,27.4 M50.9,33.4H51c0.6,0.1,1.2,0.2,1.7,0.4
				c0.4,0.2,0.7,0.5,0.9,0.8c0.3,0.7,0.4,1.5,0.1,2.2c-0.3,0.5-0.7,0.9-1.3,1.2c-0.5,0.2-1,0.4-1.5,0.4c-1,0.1-2-0.1-2.9-0.5
				c-0.6-0.3-1.1-0.7-1.5-1.2c-0.3-0.4-0.3-0.9,0-1.3c0.6-0.6,1.4-0.8,2.2-0.7c0.7,0,1.4,0.2,2.1,0.4c0.3,0.1,0.5,0.2,0.8,0.4
				c0.1,0.1,0.1,0.2,0.1,0.3c-0.1,0.4-1,0.6-1.3,0.6c-0.7,0.1-1.1-0.2-1.8-0.5c-0.2-0.1-0.4-0.1-0.7-0.2c-0.4,0-0.8,0.1-0.9,0.5
				c0,0.2,0.2,0.4,0.4,0.5c0.4,0.2,0.8,0.3,1.2,0.3c1.3,0.1,2.5-0.2,3.6-0.9c0.2-0.1,0.3-0.2,0.3-0.4c0-0.4-0.7-0.6-0.7-0.6
				c-0.8-0.3-1.7-0.4-2.6-0.5c-0.7-0.1-1.8-0.2-2-0.2c-0.3,0-0.5-0.1-0.8-0.2c-0.2-0.1-0.4-0.3-0.5-0.6c-0.1-0.5,0-1,0.3-1.4
				c0.7-1,2.3-1.3,3.4-1.5c1.4-0.2,2.8-0.1,4.1,0.5c0.2,0.1,0.3,0.2,0.2,0.4c-0.1,0.3-0.3,0.6-0.7,0.7c-0.4,0.1-0.9,0.2-1.3,0.2
				c-1.4,0-2.9,0.1-4.3,0.4c-0.1,0-0.2,0.1-0.3,0.1C47.2,33,47.8,33,47.9,33H48L50.9,33.4"/>
		</defs>
		<clipPath id="SVGID_2_">
			<use xlink:href="#SVGID_1_"  style="overflow:visible;"/>
		</clipPath>
		<g id="g26" class="st1">
			<rect id="rect24" x="12.1" y="14.4" class="st2" width="83.9" height="38.4"/>
		</g>
	</g>
	<g>
		<defs>
			<path id="SVGID_3_" d="M31.7,21.3c0,0.1,0,0.2,0,0.3c0,0.1,0.1,0.2,0.2,0.2l0.8,0.3h0.1c0.1,0,0.3-0.1,0.3-0.2
				c2.5-3.6,5.8-6.5,9.7-8.6c9-4.8,19.9-4.2,28.4,1.4c4.4,2.9,7.9,7,10,11.9c0.1,0.1,0.2,0.2,0.4,0.2h0.9c0.1,0,0.2-0.1,0.3-0.1
				c0-0.1,0-0.2,0-0.3c-2.2-5.2-5.8-9.7-10.5-12.8C58.9,4.5,40.9,8,31.7,21.3"/>
		</defs>
		<clipPath id="SVGID_4_">
			<use xlink:href="#SVGID_3_"  style="overflow:visible;"/>
		</clipPath>
		<g id="g40" class="st3">
			<g id="g34" class="st4">
				<g id="g32" class="st4">
					<g>
						<defs>
							<rect id="SVGID_5_" x="31.6" y="8.6" width="51.2" height="18.2"/>
						</defs>
						<clipPath id="SVGID_6_">
							<use xlink:href="#SVGID_5_"  style="overflow:visible;"/>
						</clipPath>
						<g id="g30" class="st5">
							
								<image style="overflow:visible;" width="214" height="77" id="image28_1_" xlink:href="BA779B80.jpg"  transform="matrix(0.24 0 0 0.24 31.47 8.38)">
							</image>
						</g>
					</g>
				</g>
			</g>
			<g>
				<defs>
					<rect id="SVGID_7_" x="31.6" y="8.6" width="51.2" height="18.2"/>
				</defs>
				<clipPath id="SVGID_8_">
					<use xlink:href="#SVGID_7_"  style="overflow:visible;"/>
				</clipPath>
				<g id="g38" class="st6">
					
						<image style="overflow:visible;" width="214" height="77" id="image36_1_" xlink:href="BA779B81.jpg"  transform="matrix(0.24 0 0 0.24 31.47 8.38)">
					</image>
				</g>
			</g>
		</g>
	</g>
</g>
</svg>
