<?xml version="1.0" encoding="utf-8"?>
<!-- Generator: Adobe Illustrator 24.0.1, SVG Export Plug-In . SVG Version: 6.00 Build 0)  -->
<svg version="1.1" id="Layer_2_1_" xmlns="http://www.w3.org/2000/svg" xmlns:xlink="http://www.w3.org/1999/xlink" x="0px" y="0px"
	 viewBox="0 0 110 55" style="enable-background:new 0 0 110 55;" xml:space="preserve">
<style type="text/css">
	.st0{fill:#FFFFFF;}
	.st1{fill:url(#_Compound_Path__1_);}
	.st2{clip-path:url(#SVGID_2_);}
	.st3{fill:url(#ellipse3466_1_);}
	.st4{clip-path:url(#SVGID_4_);}
	.st5{fill:url(#ellipse3473_1_);}
	.st6{clip-path:url(#SVGID_6_);}
	.st7{fill:url(#circle3480_1_);}
</style>
<title>HBOmax</title>
<rect width="110" height="55"/>
<g>
	<path id="path3441" class="st0" d="M19,35.7h-4.4v-6.3h-2.8v6.3H7.2V19.5h4.5v6h2.9v-6H19V35.7z M39.2,35.8c4.6,0,8.2-3.8,8.2-8.3
		c0-4.5-3.7-8.2-8.2-8.2c-3.2,0-6.1,1.8-7.4,4.7c-0.2-2.3-2-4.2-4.3-4.4h-7.5v16.2h7c2.6,0,4.7-2,4.9-4.6C33.1,34,36,35.8,39.2,35.8
		z M26.3,29.2c0.8,0.1,1.3,0.8,1.2,1.6c-0.1,0.6-0.6,1.1-1.2,1.2h-2.2v-2.8H26.3z M26.3,23.1c0.7,0.1,1.3,0.8,1.2,1.6
		c-0.1,0.6-0.6,1.1-1.2,1.2h-2.2v-2.7H26.3z M29.3,27.5c0.6-0.2,1.2-0.5,1.7-1c-0.1,0.7-0.1,1.5,0,2.2C30.6,28.1,30,27.7,29.3,27.5
		L29.3,27.5z M35.1,27.5c0-2.3,1.9-4.1,4.1-4.1c2.3,0,4.1,1.9,4.1,4.1c0,2.3-1.8,4.1-4.1,4.1C37,31.6,35.1,29.7,35.1,27.5
		C35.1,27.5,35.1,27.5,35.1,27.5z M39.2,30.7c1.8,0,3.2-1.5,3.2-3.2s-1.5-3.2-3.2-3.2c-1.8,0-3.2,1.5-3.2,3.2
		C36,29.2,37.4,30.7,39.2,30.7C39.2,30.7,39.2,30.7,39.2,30.7z"/>
	
		<linearGradient id="_Compound_Path__1_" gradientUnits="userSpaceOnUse" x1="48.97" y1="4631.7002" x2="102.7687" y2="4631.7002" gradientTransform="matrix(1 0 0 1 0 -4604.2002)">
		<stop  offset="0" style="stop-color:#991EEB"/>
		<stop  offset="0.4" style="stop-color:#5822B4"/>
		<stop  offset="0.73" style="stop-color:#5822B4"/>
		<stop  offset="1" style="stop-color:#991EEB"/>
	</linearGradient>
	<path id="_Compound_Path_" class="st1" d="M70.9,25.2c-0.1-3.9-2.9-6-6.3-6c-1.8-0.1-3.5,0.6-4.7,1.8c-1.2-1.2-2.9-1.9-4.7-1.8
		c-3.4,0-6.2,2.1-6.3,6v9c0,0.8,0.7,1.5,1.5,1.5h0h1.4c0.1,0,0.3-0.1,0.3-0.3V25.3l0,0c0-1.7,1.4-3.1,3.1-3.1s3.1,1.4,3.1,3.1l0,0
		l0,0v9c0,0.8,0.7,1.5,1.5,1.5h1.4c0.1,0,0.3-0.1,0.3-0.3V25.3l0,0c0-1.7,1.4-3.1,3.1-3.1c1.7,0,3.1,1.4,3.1,3.1l0,0v9
		c0,0.8,0.7,1.5,1.5,1.5c0,0,0,0,0,0h1.4c0.1,0,0.3-0.1,0.3-0.3L70.9,25.2L70.9,25.2L70.9,25.2z M102.6,19.5h-2.4
		c-0.7,0-1.3,0.3-1.7,0.9l-2.6,3.9c-0.3,0.4-0.8,0.5-1.2,0.2c-0.1-0.1-0.2-0.1-0.2-0.2l-2.6-3.9c-0.4-0.5-1-0.9-1.7-0.9h-2.4
		c-0.1,0-0.2,0.1-0.2,0.2c0,0,0,0.1,0,0.1l4.7,7c0.3,0.5,0.3,1.2,0,1.7l-4.7,7c-0.1,0.1,0,0.2,0.1,0.3c0,0,0.1,0,0.1,0h2.4
		c0.7,0,1.3-0.3,1.7-0.9l2.6-3.9c0.3-0.4,0.8-0.5,1.2-0.2c0.1,0.1,0.2,0.1,0.2,0.2l2.6,3.9c0.4,0.5,1,0.9,1.7,0.9h2.4
		c0.1,0,0.2-0.1,0.2-0.2c0,0,0-0.1,0-0.1l-4.7-7c-0.3-0.5-0.3-1.2,0-1.7l4.7-7C102.8,19.7,102.8,19.6,102.6,19.5
		C102.7,19.5,102.6,19.5,102.6,19.5L102.6,19.5z M86.6,19.5h-1.4c-0.7,0-1.3,0.5-1.5,1.2c-1.3-1-2.9-1.5-4.5-1.4
		c-4.1,0-7.5,2.9-7.5,8.3s3.3,8.3,7.5,8.3c1.6,0,3.2-0.5,4.5-1.4c0.1,0.8,0.7,1.4,1.5,1.4h1.4c0.1,0,0.3-0.1,0.3-0.3V19.7
		C86.8,19.6,86.7,19.5,86.6,19.5C86.6,19.5,86.6,19.5,86.6,19.5L86.6,19.5z M79.2,32.7c-2.5,0-4.5-1.8-4.5-5.2s2-5.2,4.5-5.2
		s4.5,1.8,4.5,5.2S81.6,32.7,79.2,32.7z"/>
	<g id="g3453">
		<g>
			<defs>
				<path id="SVGID_1_" d="M70.9,25.2c-0.1-3.9-2.9-6-6.3-6c-1.8-0.1-3.5,0.6-4.7,1.8c-1.2-1.2-2.9-1.9-4.7-1.8
					c-3.4,0-6.2,2.1-6.3,6v9c0,0.8,0.7,1.5,1.5,1.5h0h1.4c0.1,0,0.3-0.1,0.3-0.3V25.3l0,0c0-1.7,1.4-3.1,3.1-3.1s3.1,1.4,3.1,3.1
					l0,0l0,0v9c0,0.8,0.7,1.5,1.5,1.5h1.4c0.1,0,0.3-0.1,0.3-0.3V25.3l0,0c0-1.7,1.4-3.1,3.1-3.1c1.7,0,3.1,1.4,3.1,3.1l0,0v9
					c0,0.8,0.7,1.5,1.5,1.5c0,0,0,0,0,0h1.4c0.1,0,0.3-0.1,0.3-0.3L70.9,25.2L70.9,25.2L70.9,25.2z M102.6,19.5h-2.4
					c-0.7,0-1.3,0.3-1.7,0.9l-2.6,3.9c-0.3,0.4-0.8,0.5-1.2,0.2c-0.1-0.1-0.2-0.1-0.2-0.2l-2.6-3.9c-0.4-0.5-1-0.9-1.7-0.9h-2.4
					c-0.1,0-0.2,0.1-0.2,0.2c0,0,0,0.1,0,0.1l4.7,7c0.3,0.5,0.3,1.2,0,1.7l-4.7,7c-0.1,0.1,0,0.2,0.1,0.3c0,0,0.1,0,0.1,0h2.4
					c0.7,0,1.3-0.3,1.7-0.9l2.6-3.9c0.3-0.4,0.8-0.5,1.2-0.2c0.1,0.1,0.2,0.1,0.2,0.2l2.6,3.9c0.4,0.5,1,0.9,1.7,0.9h2.4
					c0.1,0,0.2-0.1,0.2-0.2c0,0,0-0.1,0-0.1l-4.7-7c-0.3-0.5-0.3-1.2,0-1.7l4.7-7C102.8,19.7,102.8,19.6,102.6,19.5
					C102.6,19.5,102.6,19.5,102.6,19.5z M86.6,19.5h-1.4c-0.7,0-1.3,0.5-1.5,1.2c-1.3-1-2.9-1.5-4.5-1.4c-4.1,0-7.5,2.9-7.5,8.3
					s3.3,8.3,7.5,8.3c1.6,0,3.2-0.5,4.5-1.4c0.1,0.8,0.7,1.4,1.5,1.4h1.4c0.1,0,0.3-0.1,0.3-0.3V19.7C86.8,19.6,86.7,19.5,86.6,19.5
					C86.6,19.5,86.6,19.5,86.6,19.5L86.6,19.5z M79.2,32.7c-2.5,0-4.5-1.8-4.5-5.2s2-5.2,4.5-5.2s4.5,1.8,4.5,5.2
					S81.6,32.7,79.2,32.7z"/>
			</defs>
			<clipPath id="SVGID_2_">
				<use xlink:href="#SVGID_1_"  style="overflow:visible;"/>
			</clipPath>
			<g class="st2">
				
					<radialGradient id="ellipse3466_1_" cx="-2646.7183" cy="4898.729" r="14.3" gradientTransform="matrix(0.67 0 0 0.87 1840.5599 -4259.9399)" gradientUnits="userSpaceOnUse">
					<stop  offset="0" style="stop-color:#7BA7F2;stop-opacity:0.5"/>
					<stop  offset="1" style="stop-color:#7BA7F2;stop-opacity:0"/>
				</radialGradient>
				<ellipse id="ellipse3466" class="st3" cx="61.9" cy="24.5" rx="9.6" ry="12.5"/>
			</g>
		</g>
		<g>
			<defs>
				<path id="SVGID_3_" d="M70.9,25.2c-0.1-3.9-2.9-6-6.3-6c-1.8-0.1-3.5,0.6-4.7,1.8c-1.2-1.2-2.9-1.9-4.7-1.8
					c-3.4,0-6.2,2.1-6.3,6v9c0,0.8,0.7,1.5,1.5,1.5h0h1.4c0.1,0,0.3-0.1,0.3-0.3V25.3l0,0c0-1.7,1.4-3.1,3.1-3.1s3.1,1.4,3.1,3.1
					l0,0l0,0v9c0,0.8,0.7,1.5,1.5,1.5h1.4c0.1,0,0.3-0.1,0.3-0.3V25.3l0,0c0-1.7,1.4-3.1,3.1-3.1c1.7,0,3.1,1.4,3.1,3.1l0,0v9
					c0,0.8,0.7,1.5,1.5,1.5c0,0,0,0,0,0h1.4c0.1,0,0.3-0.1,0.3-0.3L70.9,25.2L70.9,25.2L70.9,25.2z M102.6,19.5h-2.4
					c-0.7,0-1.3,0.3-1.7,0.9l-2.6,3.9c-0.3,0.4-0.8,0.5-1.2,0.2c-0.1-0.1-0.2-0.1-0.2-0.2l-2.6-3.9c-0.4-0.5-1-0.9-1.7-0.9h-2.4
					c-0.1,0-0.2,0.1-0.2,0.2c0,0,0,0.1,0,0.1l4.7,7c0.3,0.5,0.3,1.2,0,1.7l-4.7,7c-0.1,0.1,0,0.2,0.1,0.3c0,0,0.1,0,0.1,0h2.4
					c0.7,0,1.3-0.3,1.7-0.9l2.6-3.9c0.3-0.4,0.8-0.5,1.2-0.2c0.1,0.1,0.2,0.1,0.2,0.2l2.6,3.9c0.4,0.5,1,0.9,1.7,0.9h2.4
					c0.1,0,0.2-0.1,0.2-0.2c0,0,0-0.1,0-0.1l-4.7-7c-0.3-0.5-0.3-1.2,0-1.7l4.7-7C102.8,19.7,102.8,19.6,102.6,19.5
					C102.6,19.5,102.6,19.5,102.6,19.5z M86.6,19.5h-1.4c-0.7,0-1.3,0.5-1.5,1.2c-1.3-1-2.9-1.5-4.5-1.4c-4.1,0-7.5,2.9-7.5,8.3
					s3.3,8.3,7.5,8.3c1.6,0,3.2-0.5,4.5-1.4c0.1,0.8,0.7,1.4,1.5,1.4h1.4c0.1,0,0.3-0.1,0.3-0.3V19.7C86.8,19.6,86.7,19.5,86.6,19.5
					C86.6,19.5,86.6,19.5,86.6,19.5L86.6,19.5z M79.2,32.7c-2.5,0-4.5-1.8-4.5-5.2s2-5.2,4.5-5.2s4.5,1.8,4.5,5.2
					S81.6,32.7,79.2,32.7z"/>
			</defs>
			<clipPath id="SVGID_4_">
				<use xlink:href="#SVGID_3_"  style="overflow:visible;"/>
			</clipPath>
			<g class="st4">
				
					<radialGradient id="ellipse3473_1_" cx="71.49" cy="5396.7788" r="19.76" gradientTransform="matrix(1 0 0 0.71 0 -3787.0098)" gradientUnits="userSpaceOnUse">
					<stop  offset="0.2" style="stop-color:#7BA7F2"/>
					<stop  offset="1" style="stop-color:#7BA7F2;stop-opacity:0"/>
				</radialGradient>
				<ellipse id="ellipse3473" class="st5" cx="71.5" cy="34.9" rx="19.8" ry="14"/>
			</g>
		</g>
		<g>
			<defs>
				<path id="SVGID_5_" d="M70.9,25.2c-0.1-3.9-2.9-6-6.3-6c-1.8-0.1-3.5,0.6-4.7,1.8c-1.2-1.2-2.9-1.9-4.7-1.8
					c-3.4,0-6.2,2.1-6.3,6v9c0,0.8,0.7,1.5,1.5,1.5h0h1.4c0.1,0,0.3-0.1,0.3-0.3V25.3l0,0c0-1.7,1.4-3.1,3.1-3.1s3.1,1.4,3.1,3.1
					l0,0l0,0v9c0,0.8,0.7,1.5,1.5,1.5h1.4c0.1,0,0.3-0.1,0.3-0.3V25.3l0,0c0-1.7,1.4-3.1,3.1-3.1c1.7,0,3.1,1.4,3.1,3.1l0,0v9
					c0,0.8,0.7,1.5,1.5,1.5c0,0,0,0,0,0h1.4c0.1,0,0.3-0.1,0.3-0.3L70.9,25.2L70.9,25.2L70.9,25.2z M102.6,19.5h-2.4
					c-0.7,0-1.3,0.3-1.7,0.9l-2.6,3.9c-0.3,0.4-0.8,0.5-1.2,0.2c-0.1-0.1-0.2-0.1-0.2-0.2l-2.6-3.9c-0.4-0.5-1-0.9-1.7-0.9h-2.4
					c-0.1,0-0.2,0.1-0.2,0.2c0,0,0,0.1,0,0.1l4.7,7c0.3,0.5,0.3,1.2,0,1.7l-4.7,7c-0.1,0.1,0,0.2,0.1,0.3c0,0,0.1,0,0.1,0h2.4
					c0.7,0,1.3-0.3,1.7-0.9l2.6-3.9c0.3-0.4,0.8-0.5,1.2-0.2c0.1,0.1,0.2,0.1,0.2,0.2l2.6,3.9c0.4,0.5,1,0.9,1.7,0.9h2.4
					c0.1,0,0.2-0.1,0.2-0.2c0,0,0-0.1,0-0.1l-4.7-7c-0.3-0.5-0.3-1.2,0-1.7l4.7-7C102.8,19.7,102.8,19.6,102.6,19.5
					C102.6,19.5,102.6,19.5,102.6,19.5z M86.6,19.5h-1.4c-0.7,0-1.3,0.5-1.5,1.2c-1.3-1-2.9-1.5-4.5-1.4c-4.1,0-7.5,2.9-7.5,8.3
					s3.3,8.3,7.5,8.3c1.6,0,3.2-0.5,4.5-1.4c0.1,0.8,0.7,1.4,1.5,1.4h1.4c0.1,0,0.3-0.1,0.3-0.3V19.7C86.8,19.6,86.7,19.5,86.6,19.5
					C86.6,19.5,86.6,19.5,86.6,19.5L86.6,19.5z M79.2,32.7c-2.5,0-4.5-1.8-4.5-5.2s2-5.2,4.5-5.2s4.5,1.8,4.5,5.2
					S81.6,32.7,79.2,32.7z"/>
			</defs>
			<clipPath id="SVGID_6_">
				<use xlink:href="#SVGID_5_"  style="overflow:visible;"/>
			</clipPath>
			<g class="st6">
				
					<radialGradient id="circle3480_1_" cx="83.63" cy="4624.3701" r="10.75" gradientTransform="matrix(1 0 0 1 0 -4604.2002)" gradientUnits="userSpaceOnUse">
					<stop  offset="0" style="stop-color:#7BA7F2"/>
					<stop  offset="1" style="stop-color:#7BA7F2;stop-opacity:0"/>
				</radialGradient>
				<circle id="circle3480" class="st7" cx="83.6" cy="20.2" r="10.8"/>
			</g>
		</g>
	</g>
</g>
</svg>
