<?xml version="1.0" encoding="utf-8"?>
<!-- Generator: Adobe Illustrator 24.0.1, SVG Export Plug-In . SVG Version: 6.00 Build 0)  -->
<svg version="1.1"
	 id="Layer_2_1_" inkscape:version="0.92.4 (5da689c313, 2019-01-14)" sodipodi:docname="netflix.svg" xmlns:cc="http://creativecommons.org/ns#" xmlns:dc="http://purl.org/dc/elements/1.1/" xmlns:inkscape="http://www.inkscape.org/namespaces/inkscape" xmlns:rdf="http://www.w3.org/1999/02/22-rdf-syntax-ns#" xmlns:sodipodi="http://sodipodi.sourceforge.net/DTD/sodipodi-0.dtd" xmlns:svg="http://www.w3.org/2000/svg"
	 xmlns="http://www.w3.org/2000/svg" xmlns:xlink="http://www.w3.org/1999/xlink" x="0px" y="0px" viewBox="0 0 110 55"
	 style="enable-background:new 0 0 110 55;" xml:space="preserve">
<style type="text/css">
	.st0{fill:#FFFFFF;}
	.st1{fill:#E50914;}
</style>
<sodipodi:namedview  bordercolor="#666666" borderopacity="1" gridtolerance="10" guidetolerance="10" id="namedview16" inkscape:current-layer="Layer_2" inkscape:cx="56" inkscape:cy="26.5" inkscape:pageopacity="0" inkscape:pageshadow="2" inkscape:window-height="480" inkscape:window-maximized="0" inkscape:window-width="640" inkscape:window-x="0" inkscape:window-y="0" inkscape:zoom="2.5175439" objecttolerance="10" pagecolor="#ffffff" showgrid="false">
	</sodipodi:namedview>
<title  id="title6">Artboard 10</title>
<rect id="rect8" class="st0" width="110" height="55"/>
<g id="V1.1" transform="translate(-1,-1)">
	<g id="newOnboarding---homePage---newUser">
		<g id="streamingspider">
			<g id="Page-1">
				<path id="Shape" inkscape:connector-curvature="0" class="st1" d="M28.2,38.3c-1.2,0.2-2.3,0.3-3.5,0.4l-3.7-11v11.5
					c-1.1,0.1-2.2,0.3-3.3,0.5V18.6h3.1l4.2,12v-12h3.2V38.3z M34.6,26.3c1.3,0,3.2-0.1,4.3-0.1v3.3c-1.4,0-3.1,0-4.3,0.1v4.9
					c1.9-0.1,3.8-0.3,5.7-0.3v3.2l-9,0.7V18.6h9v3.3h-5.7V26.3z M52.3,21.9H49v15.1c-1.1,0-2.2,0-3.2,0V21.9h-3.4v-3.3h10L52.3,21.9
					z M57.6,26.1H62v3.3h-4.4v7.5h-3.2V18.6h9v3.3h-5.8V26.1z M68.7,34c1.8,0,3.7,0.2,5.5,0.3v3.3c-2.9-0.2-5.8-0.4-8.8-0.4V18.6
					h3.2V34z M77,37.8c1,0.1,2.1,0.1,3.2,0.3V18.6H77V37.8z M94.3,18.6l-4.1,10l4.1,11c-1.2-0.2-2.4-0.4-3.7-0.6L88.4,33L86,38.6
					c-1.2-0.2-2.3-0.3-3.5-0.4l4.2-9.6l-3.8-9.9h3.5l2.1,5.5l2.3-5.5L94.3,18.6z"/>
			</g>
		</g>
	</g>
</g>
</svg>
